<svg xmlns="http://www.w3.org/2000/svg" xmlns:svg="http://www.w3.org/2000/svg" xmlns:xlink="http://www.w3.org/1999/xlink" id="svg1306" width="48" height="48"><defs id="defs1308"><linearGradient id="linearGradient5358"><stop id="stop5360" offset="0" stop-color="#fff" stop-opacity="1"/><stop id="stop5362" offset="1" stop-color="#fff" stop-opacity="0"/></linearGradient><linearGradient id="linearGradient5346"><stop id="stop5348" offset="0" stop-color="#fff" stop-opacity="1"/><stop id="stop5350" offset="1" stop-color="#fff" stop-opacity="0"/></linearGradient><linearGradient id="linearGradient13352" x1="284.802" x2="288.9" y1="-441.233" y2="-436.831" gradientUnits="userSpaceOnUse" xlink:href="#linearGradient6538"/><linearGradient id="linearGradient13350" x1="286.666" x2="289.766" y1="-439.484" y2="-436.707" gradientUnits="userSpaceOnUse" xlink:href="#linearGradient6549"/><linearGradient id="linearGradient13347" x1="275.942" x2="279.975" y1="-437.105" y2="-431.918" gradientTransform="translate(-35.00007,207.0001)" gradientUnits="userSpaceOnUse" xlink:href="#linearGradient6527"/><linearGradient id="linearGradient13345" x1="285.941" x2="289.391" y1="-439.939" y2="-436.443" gradientUnits="userSpaceOnUse" xlink:href="#linearGradient6538"/><linearGradient id="linearGradient13343" x1="286.512" x2="289.854" y1="-441.291" y2="-436.145" gradientUnits="userSpaceOnUse" xlink:href="#linearGradient6513"/><linearGradient id="linearGradient13341" x1="287.517" x2="289.676" y1="-439.753" y2="-436.322" gradientUnits="userSpaceOnUse" xlink:href="#linearGradient6497"/><linearGradient id="linearGradient13339" x1="271.022" x2="285.029" y1="-441.052" y2="-431.97" gradientTransform="translate(-34.00007,207.0001)" gradientUnits="userSpaceOnUse" xlink:href="#linearGradient6470"/><linearGradient id="linearGradient13337" x1="284.802" x2="288.9" y1="-441.233" y2="-436.831" gradientUnits="userSpaceOnUse" xlink:href="#linearGradient6538"/><linearGradient id="linearGradient6549"><stop id="stop6551" offset="0" stop-color="#fff" stop-opacity="1"/><stop id="stop6553" offset="1" stop-color="#fff" stop-opacity="0"/></linearGradient><linearGradient id="linearGradient13335" x1="286.666" x2="289.766" y1="-439.484" y2="-436.707" gradientUnits="userSpaceOnUse" xlink:href="#linearGradient6549"/><linearGradient id="linearGradient6527"><stop id="stop6530" offset="0" stop-color="#fff" stop-opacity="1"/><stop id="stop6532" offset="1" stop-color="#fff" stop-opacity="0"/></linearGradient><linearGradient id="linearGradient13333" x1="275.942" x2="279.975" y1="-437.105" y2="-431.918" gradientTransform="translate(-35.00007,207.0001)" gradientUnits="userSpaceOnUse" xlink:href="#linearGradient6527"/><linearGradient id="linearGradient6538"><stop id="stop6540" offset="0" stop-color="#fff" stop-opacity="1"/><stop id="stop6542" offset="1" stop-color="#fff" stop-opacity="0"/></linearGradient><linearGradient id="linearGradient13331" x1="285.941" x2="289.391" y1="-439.939" y2="-436.443" gradientUnits="userSpaceOnUse" xlink:href="#linearGradient6538"/><linearGradient id="linearGradient6513"><stop id="stop6515" offset="0" stop-color="#fff" stop-opacity="1"/><stop id="stop6517" offset="1" stop-color="#fff" stop-opacity="0"/></linearGradient><linearGradient id="linearGradient13329" x1="286.512" x2="289.854" y1="-441.291" y2="-436.145" gradientUnits="userSpaceOnUse" xlink:href="#linearGradient6513"/><linearGradient id="linearGradient6497"><stop id="stop6499" offset="0" stop-color="#fff" stop-opacity="1"/><stop id="stop6501" offset="1" stop-color="#fff" stop-opacity="0"/></linearGradient><linearGradient id="linearGradient13327" x1="287.517" x2="289.676" y1="-439.753" y2="-436.322" gradientUnits="userSpaceOnUse" xlink:href="#linearGradient6497"/><linearGradient id="linearGradient6470"><stop id="stop6472" offset="0" stop-color="#fff" stop-opacity="1"/><stop id="stop6474" offset="1" stop-color="#fff" stop-opacity="0"/></linearGradient><linearGradient id="linearGradient13325" x1="271.022" x2="285.029" y1="-441.052" y2="-431.97" gradientTransform="translate(-34.00007,207.0001)" gradientUnits="userSpaceOnUse" xlink:href="#linearGradient6470"/><linearGradient id="linearGradient8397"><stop id="stop8400" offset="0" stop-color="#fff" stop-opacity="1"/><stop id="stop8402" offset="1" stop-color="#fff" stop-opacity="0"/></linearGradient><linearGradient id="linearGradient13323" x1="238.005" x2="245.655" y1="-388.475" y2="-382.645" gradientUnits="userSpaceOnUse" xlink:href="#linearGradient8397"/><linearGradient id="linearGradient8315"><stop id="stop8317" offset="0" stop-color="#fff" stop-opacity="1"/><stop id="stop8319" offset="1" stop-color="#fff" stop-opacity="0"/></linearGradient><linearGradient id="linearGradient13321" x1="230.876" x2="235.257" y1="-390.44" y2="-386.959" gradientUnits="userSpaceOnUse" xlink:href="#linearGradient8315"/><linearGradient id="linearGradient8381"><stop id="stop8383" offset="0" stop-color="#fff" stop-opacity="1"/><stop id="stop8385" offset="1" stop-color="#fff" stop-opacity="0"/></linearGradient><linearGradient id="linearGradient13319" x1="246.74" x2="252.698" y1="-391.314" y2="-385.352" gradientUnits="userSpaceOnUse" xlink:href="#linearGradient8381"/><linearGradient id="linearGradient8331"><stop id="stop8333" offset="0" stop-color="#fff" stop-opacity="1"/><stop id="stop8335" offset="1" stop-color="#fff" stop-opacity="0"/></linearGradient><linearGradient id="linearGradient13317" x1="240.074" x2="245.827" y1="-393.407" y2="-388.55" gradientUnits="userSpaceOnUse" xlink:href="#linearGradient8331"/><linearGradient id="linearGradient8302"><stop id="stop8304" offset="0" stop-color="#fff" stop-opacity="1"/><stop id="stop8306" offset="1" stop-color="#fff" stop-opacity="0"/></linearGradient><linearGradient id="linearGradient13315" x1="228.503" x2="266.364" y1="-392.306" y2="-379.269" gradientTransform="translate(69.00000,155.0000)" gradientUnits="userSpaceOnUse" xlink:href="#linearGradient8302"/><radialGradient id="radialGradient8290" cx="21.92" cy="-382.965" r="21.744" fx="21.92" fy="-382.965" gradientTransform="matrix(7.065158e-2,4.154803e-2,-6.201499e-2,0.109408,207.4757,-189.8182)" gradientUnits="userSpaceOnUse" xlink:href="#linearGradient5346"/><linearGradient id="linearGradient8292" x1="6.894" x2="27.4" y1="-359.824" y2="-381.302" gradientTransform="matrix(-5.358613e-2,0.102849,-9.281434e-2,-5.937964e-2,198.9051,-255.6893)" gradientUnits="userSpaceOnUse" xlink:href="#linearGradient5358"/><radialGradient id="radialGradient8294" cx="21.92" cy="-382.965" r="21.744" fx="21.92" fy="-382.965" gradientTransform="matrix(7.065158e-2,4.154803e-2,-6.201499e-2,0.109408,207.4757,-189.8182)" gradientUnits="userSpaceOnUse" xlink:href="#linearGradient5346"/><linearGradient id="linearGradient8296" x1="6.894" x2="27.4" y1="-359.824" y2="-381.302" gradientTransform="matrix(-5.358613e-2,0.102849,-9.281434e-2,-5.937964e-2,198.9051,-255.6893)" gradientUnits="userSpaceOnUse" xlink:href="#linearGradient5358"/><radialGradient id="radialGradient8298" cx="21.92" cy="-382.965" r="21.744" fx="21.92" fy="-382.965" gradientTransform="matrix(7.065158e-2,4.154803e-2,-6.201499e-2,0.109408,207.4757,-189.8182)" gradientUnits="userSpaceOnUse" xlink:href="#linearGradient5346"/><linearGradient id="linearGradient8300" x1="6.894" x2="27.4" y1="-359.824" y2="-381.302" gradientTransform="matrix(-5.358613e-2,0.102849,-9.281434e-2,-5.937964e-2,198.9051,-255.6893)" gradientUnits="userSpaceOnUse" xlink:href="#linearGradient5358"/><radialGradient id="radialGradient8302" cx="21.92" cy="-382.965" r="21.744" fx="21.92" fy="-382.965" gradientTransform="matrix(7.065158e-2,4.154803e-2,-6.201499e-2,0.109408,207.4757,-189.8182)" gradientUnits="userSpaceOnUse" xlink:href="#linearGradient5346"/><linearGradient id="linearGradient8304" x1="6.894" x2="27.4" y1="-359.824" y2="-381.302" gradientTransform="matrix(-5.358613e-2,0.102849,-9.281434e-2,-5.937964e-2,198.9051,-255.6893)" gradientUnits="userSpaceOnUse" xlink:href="#linearGradient5358"/><radialGradient id="radialGradient8306" cx="21.92" cy="-382.965" r="21.744" fx="21.92" fy="-382.965" gradientTransform="matrix(7.065158e-2,4.154803e-2,-6.201499e-2,0.109408,207.4757,-189.8182)" gradientUnits="userSpaceOnUse" xlink:href="#linearGradient5346"/><linearGradient id="linearGradient8308" x1="6.894" x2="27.4" y1="-359.824" y2="-381.302" gradientTransform="matrix(-5.358613e-2,0.102849,-9.281434e-2,-5.937964e-2,198.9051,-255.6893)" gradientUnits="userSpaceOnUse" xlink:href="#linearGradient5358"/><radialGradient id="radialGradient8310" cx="21.92" cy="-382.965" r="21.744" fx="21.92" fy="-382.965" gradientTransform="matrix(7.065158e-2,4.154803e-2,-6.201499e-2,0.109408,207.4757,-189.8182)" gradientUnits="userSpaceOnUse" xlink:href="#linearGradient5346"/><linearGradient id="linearGradient8312" x1="6.894" x2="27.4" y1="-359.824" y2="-381.302" gradientTransform="matrix(-5.358613e-2,0.102849,-9.281434e-2,-5.937964e-2,198.9051,-255.6893)" gradientUnits="userSpaceOnUse" xlink:href="#linearGradient5358"/></defs><metadata id="metadata1311"/><g id="layer1"><g><g><g><path fill="#555753" fill-opacity="1" stroke="none" stroke-dasharray="none" stroke-dashoffset="0" stroke-linecap="butt" stroke-linejoin="miter" stroke-miterlimit="2" stroke-opacity="1" stroke-width="1" d="M 311.50000,-242.99998 C 308.72758,-242.99998 306.39177,-241.42627 305.09375,-239.18748 C 304.14939,-239.66252 303.12856,-239.99998 302.00000,-239.99998 C 298.13600,-239.99998 295.00000,-236.86398 295.00000,-232.99998 C 295.00000,-229.13598 298.13600,-225.99998 302.00000,-225.99998 C 304.41967,-225.99998 306.43009,-227.31930 307.68750,-229.18748 C 308.82170,-228.49786 310.07648,-227.99998 311.50000,-227.99998 C 312.41312,-227.99998 313.25295,-228.23200 314.06250,-228.53123 C 314.57244,-227.66350 315.24162,-226.95151 316.06250,-226.37498 C 316.05526,-226.24460 316.00000,-226.13216 316.00000,-225.99998 C 316.00000,-222.13598 319.13599,-218.99998 323.00000,-218.99998 C 326.86400,-218.99998 330.00000,-222.13598 330.00000,-225.99998 C 330.00000,-228.36967 328.74102,-230.35832 326.93750,-231.62498 C 326.94474,-231.75536 327.00000,-231.86780 327.00000,-231.99998 C 327.00000,-235.86398 323.86401,-238.99998 320.00000,-238.99998 C 319.37730,-238.99998 318.82481,-238.77779 318.25000,-238.62498 C 317.05547,-241.18382 314.50866,-242.99998 311.50000,-242.99998 z" opacity="1" transform="matrix(0.999675,0.000000,0.000000,1.000000,-286.8562,245.0000)"/><path fill="url(#linearGradient13315)" fill-opacity="1" stroke="none" stroke-dasharray="none" stroke-dashoffset="0" stroke-linecap="butt" stroke-linejoin="miter" stroke-miterlimit="2" stroke-opacity="1" stroke-width="1" d="M 311.50000,-241.99998 C 308.71952,-241.99998 306.36549,-240.23813 305.43750,-237.78123 C 304.45208,-238.49067 303.30607,-238.99998 302.00000,-238.99998 C 298.68800,-238.99998 296.00000,-236.31198 296.00000,-232.99998 C 296.00000,-229.68798 298.68800,-226.99998 302.00000,-226.99998 C 304.42775,-226.99998 306.49324,-228.45556 307.43750,-230.53123 C 308.55826,-229.61367 309.93964,-228.99998 311.50000,-228.99998 C 312.57454,-228.99998 313.54428,-229.31894 314.43750,-229.78123 C 314.83590,-228.78147 315.53864,-227.99491 316.37500,-227.34373 C 316.19499,-226.74811 316.00000,-226.15408 316.00000,-225.49998 C 316.00000,-221.91198 318.91200,-218.99998 322.50000,-218.99998 C 326.08800,-218.99998 329.00000,-221.91198 329.00000,-225.49998 C 329.00000,-227.86077 327.66567,-229.83017 325.78125,-230.96873 C 325.84384,-231.31596 326.00000,-231.63481 326.00000,-231.99998 C 326.00000,-235.31198 323.31200,-237.99998 320.00000,-237.99998 C 319.14702,-237.99998 318.32870,-237.82130 317.59375,-237.49998 C 316.73998,-240.09386 314.37851,-241.99997 311.50000,-241.99998 z" opacity="1" transform="matrix(0.999675,0.000000,0.000000,1.000000,-286.8562,245.0000)"/><path fill="#888a85" fill-opacity="1" stroke="none" stroke-dasharray="none" stroke-dashoffset="0" stroke-linecap="butt" stroke-linejoin="miter" stroke-miterlimit="2" stroke-opacity="1" stroke-width="1" d="M 248.54804 -383.66660 A 6.7396116 6.7396116 0 1 1 235.06881,-383.66660 A 6.7396116 6.7396116 0 1 1 248.54804 -383.66660 z" opacity="1" transform="matrix(0.999675,0.000000,0.000000,1.000000,-286.8562,245.0000) matrix(0.964447,0.000000,0.000000,0.964447,89.28852,144.5262)"/><g><path fill="#888a85" fill-opacity="1" stroke="none" stroke-dasharray="none" stroke-dashoffset="0" stroke-linecap="butt" stroke-linejoin="miter" stroke-miterlimit="2" stroke-opacity="1" stroke-width="1" d="M 250.18322 -389.30136 A 6.2313786 6.2313786 0 1 1 237.72046,-389.30136 A 6.2313786 6.2313786 0 1 1 250.18322 -389.30136 z" opacity="1" transform="matrix(0.999675,0.000000,0.000000,1.000000,-286.8562,245.0000) matrix(0.882630,0.000000,0.000000,0.882630,96.18078,108.1091)"/><path fill="url(#linearGradient13317)" fill-opacity="1" stroke="none" stroke-dasharray="none" stroke-dashoffset="0" stroke-linecap="butt" stroke-linejoin="miter" stroke-miterlimit="2" stroke-opacity="1" stroke-width="1" d="M 250.18322 -389.30136 A 6.2313786 6.2313786 0 1 1 237.72046,-389.30136 A 6.2313786 6.2313786 0 1 1 250.18322 -389.30136 z" opacity=".494" transform="matrix(0.999675,0.000000,0.000000,1.000000,-286.8562,245.0000) matrix(0.882630,0.000000,0.000000,0.882630,96.18078,108.1091)"/></g><g><path fill="#888a85" fill-opacity="1" stroke="none" stroke-dasharray="none" stroke-dashoffset="0" stroke-linecap="butt" stroke-linejoin="miter" stroke-miterlimit="2" stroke-opacity="1" stroke-width="1" d="M 257.25429 -385.78790 A 6.0325046 6.0325046 0 1 1 245.18928,-385.78790 A 6.0325046 6.0325046 0 1 1 257.25429 -385.78790 z" opacity="1" transform="matrix(0.999675,0.000000,0.000000,1.000000,-286.8562,245.0000) matrix(0.911728,0.000000,0.000000,0.911728,90.45407,120.2336)"/><path fill="url(#linearGradient13319)" fill-opacity="1" stroke="none" stroke-dasharray="none" stroke-dashoffset="0" stroke-linecap="butt" stroke-linejoin="miter" stroke-miterlimit="2" stroke-opacity="1" stroke-width="1" d="M 257.25429 -385.78790 A 6.0325046 6.0325046 0 1 1 245.18928,-385.78790 A 6.0325046 6.0325046 0 1 1 257.25429 -385.78790 z" opacity=".494" transform="matrix(0.999675,0.000000,0.000000,1.000000,-286.8562,245.0000) matrix(0.911728,0.000000,0.000000,0.911728,90.45407,120.2336)"/></g><g><path fill="#888a85" fill-opacity="1" stroke="none" stroke-dasharray="none" stroke-dashoffset="0" stroke-linecap="butt" stroke-linejoin="miter" stroke-miterlimit="2" stroke-opacity="1" stroke-width="1" d="M 237.80885 -387.88715 A 4.3752232 4.3752232 0 1 1 229.05840,-387.88715 A 4.3752232 4.3752232 0 1 1 237.80885 -387.88715 z" opacity="1" transform="matrix(0.999675,0.000000,0.000000,1.000000,-286.8562,245.0000) matrix(1.142799,0.000000,0.000000,1.142799,35.23229,210.2770)"/><path fill="url(#linearGradient13321)" fill-opacity="1" stroke="none" stroke-dasharray="none" stroke-dashoffset="0" stroke-linecap="butt" stroke-linejoin="miter" stroke-miterlimit="2" stroke-opacity="1" stroke-width="1" d="M 237.80885 -387.88715 A 4.3752232 4.3752232 0 1 1 229.05840,-387.88715 A 4.3752232 4.3752232 0 1 1 237.80885 -387.88715 z" opacity=".494" transform="matrix(0.999675,0.000000,0.000000,1.000000,-286.8562,245.0000) matrix(1.142799,0.000000,0.000000,1.142799,35.23229,210.2770)"/></g><g><path fill="#888a85" fill-opacity="1" stroke="none" stroke-dasharray="none" stroke-dashoffset="0" stroke-linecap="butt" stroke-linejoin="miter" stroke-miterlimit="2" stroke-opacity="1" stroke-width="1" d="M 248.54804 -383.66660 A 6.7396116 6.7396116 0 1 1 235.06881,-383.66660 A 6.7396116 6.7396116 0 1 1 248.54804 -383.66660 z" opacity="1" transform="matrix(0.999675,0.000000,0.000000,1.000000,-286.8562,245.0000) matrix(1.038636,0.000000,0.000000,1.038636,59.84906,169.4899)"/><path fill="url(#linearGradient13323)" fill-opacity="1" stroke="none" stroke-dasharray="none" stroke-dashoffset="0" stroke-linecap="butt" stroke-linejoin="miter" stroke-miterlimit="2" stroke-opacity="1" stroke-width="1" d="M 248.54804 -383.66660 A 6.7396116 6.7396116 0 1 1 235.06881,-383.66660 A 6.7396116 6.7396116 0 1 1 248.54804 -383.66660 z" opacity=".494" transform="matrix(0.999675,0.000000,0.000000,1.000000,-286.8562,245.0000) matrix(1.038636,0.000000,0.000000,1.038636,59.84907,169.4899)"/></g></g><g transform="matrix(0.999675,0.000000,0.000000,1.000000,-286.8562,245.0000) translate(72.00007,7.999930)"><path fill="#888a85" fill-opacity="1" stroke="#555753" stroke-dasharray="none" stroke-dashoffset="0" stroke-linecap="butt" stroke-linejoin="miter" stroke-miterlimit="2" stroke-opacity="1" stroke-width="1" d="M 246.49993,-238.49993 C 244.22910,-238.49993 242.39002,-236.94965 241.78118,-234.87493 C 241.08795,-235.23876 240.33667,-235.49993 239.49993,-235.49993 C 236.73993,-235.49993 234.49992,-233.25994 234.49993,-230.49993 C 234.49993,-229.92100 234.66245,-229.39223 234.84368,-228.87493 C 233.47021,-228.10419 232.49993,-226.68593 232.49993,-224.99993 C 232.49993,-222.51593 234.51593,-220.49992 236.99993,-220.49993 C 237.17706,-220.49993 255.82280,-220.49993 255.99993,-220.49993 C 258.48392,-220.49993 260.49993,-222.51593 260.49993,-224.99993 C 260.49993,-226.68593 259.52965,-228.10419 258.15618,-228.87493 C 258.33742,-229.39222 258.49993,-229.92101 258.49993,-230.49993 C 258.49993,-233.25993 256.25993,-235.49992 253.49993,-235.49993 C 252.66319,-235.49993 251.91191,-235.23876 251.21868,-234.87493 C 250.60984,-236.94965 248.77076,-238.49993 246.49993,-238.49993 z"/><path fill="url(#linearGradient13325)" fill-opacity="1" stroke="none" stroke-dasharray="none" stroke-dashoffset="0" stroke-linecap="butt" stroke-linejoin="miter" stroke-miterlimit="2" stroke-opacity="1" stroke-width="1" d="M 246.49993,-237.99993 C 244.31021,-237.99993 242.77633,-236.66416 242.10438,-234.15641 C 241.43592,-234.50003 240.55679,-234.98976 239.74993,-234.98976 C 237.03342,-234.98976 234.99479,-233.05094 234.99480,-230.44422 C 234.99480,-229.89745 235.26201,-229.11078 235.43676,-228.62221 C 234.11233,-227.89426 232.99993,-226.73171 232.99993,-225.24966 C 232.99993,-222.90361 234.54610,-220.99957 237.33921,-220.99957 C 237.51002,-220.99957 255.48985,-220.99957 255.66065,-220.99957 C 258.43166,-220.99957 259.99993,-222.90361 259.99993,-225.24966 C 259.99993,-226.84203 258.88753,-227.91635 257.56310,-228.64430 C 257.73786,-229.13286 258.02717,-229.89746 258.02717,-230.44422 C 258.02717,-233.05093 255.91136,-235.01185 253.24994,-235.01186 C 252.44307,-235.01186 251.60813,-234.52212 250.93967,-234.17850 C 250.29082,-236.60004 248.68966,-237.99993 246.49993,-237.99993 z" opacity="1"/><path fill="#888a85" fill-opacity="1" stroke="none" stroke-dasharray="none" stroke-dashoffset="0" stroke-linecap="butt" stroke-linejoin="miter" stroke-miterlimit="2" stroke-opacity="1" stroke-width="1" d="M 291.68750 -437.59375 A 3.3125000 3.3125000 0 1 1 285.06250,-437.59375 A 3.3125000 3.3125000 0 1 1 291.68750 -437.59375 z" opacity="1" transform="matrix(1.056604,0.000000,0.000000,1.056604,-58.19825,228.8634)"/><path fill="url(#linearGradient13327)" fill-opacity="1" stroke="none" stroke-dasharray="none" stroke-dashoffset="0" stroke-linecap="butt" stroke-linejoin="miter" stroke-miterlimit="2" stroke-opacity="1" stroke-width="1" d="M 291.68750 -437.59375 A 3.3125000 3.3125000 0 1 1 285.06250,-437.59375 A 3.3125000 3.3125000 0 1 1 291.68750 -437.59375 z" opacity=".478" transform="matrix(1.056604,0.000000,0.000000,1.056604,-58.19825,228.8634)"/><rect width="20" height="9" x="237" y="-231" fill="#888a85" fill-opacity="1" stroke="none" stroke-dasharray="none" stroke-dashoffset="0" stroke-linecap="butt" stroke-linejoin="miter" stroke-miterlimit="2" stroke-opacity="1" stroke-width="1" opacity="1"/><path fill="#888a85" fill-opacity="1" stroke="none" stroke-dasharray="none" stroke-dashoffset="0" stroke-linecap="butt" stroke-linejoin="miter" stroke-miterlimit="2" stroke-opacity="1" stroke-width="1" d="M 291.68750 -437.59375 A 3.3125000 3.3125000 0 1 1 285.06250,-437.59375 A 3.3125000 3.3125000 0 1 1 291.68750 -437.59375 z" opacity="1" transform="matrix(0.905660,0.000000,0.000000,0.905660,-24.16987,171.3114)"/><path fill="#888a85" fill-opacity="1" stroke="none" stroke-dasharray="none" stroke-dashoffset="0" stroke-linecap="butt" stroke-linejoin="miter" stroke-miterlimit="2" stroke-opacity="1" stroke-width="1" d="M 291.68750 -437.59375 A 3.3125000 3.3125000 0 1 1 285.06250,-437.59375 A 3.3125000 3.3125000 0 1 1 291.68750 -437.59375 z" opacity="1" transform="matrix(1.056604,0.000000,0.000000,1.056604,-51.19818,231.8633)"/><path fill="url(#linearGradient13329)" fill-opacity="1" stroke="none" stroke-dasharray="none" stroke-dashoffset="0" stroke-linecap="butt" stroke-linejoin="miter" stroke-miterlimit="2" stroke-opacity="1" stroke-width="1" d="M 291.68750 -437.59375 A 3.3125000 3.3125000 0 1 1 285.06250,-437.59375 A 3.3125000 3.3125000 0 1 1 291.68750 -437.59375 z" opacity=".478" transform="matrix(1.056604,0.000000,0.000000,1.056604,-51.19825,231.8634)"/><path fill="#888a85" fill-opacity="1" stroke="none" stroke-dasharray="none" stroke-dashoffset="0" stroke-linecap="butt" stroke-linejoin="miter" stroke-miterlimit="2" stroke-opacity="1" stroke-width="1" d="M 291.68750 -437.59375 A 3.3125000 3.3125000 0 1 1 285.06250,-437.59375 A 3.3125000 3.3125000 0 1 1 291.68750 -437.59375 z" opacity="1" transform="matrix(1.056604,0.000000,0.000000,1.056604,-65.19825,231.8634)"/><path fill="url(#linearGradient13331)" fill-opacity="1" stroke="none" stroke-dasharray="none" stroke-dashoffset="0" stroke-linecap="butt" stroke-linejoin="miter" stroke-miterlimit="2" stroke-opacity="1" stroke-width="1" d="M 291.68750 -437.59375 A 3.3125000 3.3125000 0 1 1 285.06250,-437.59375 A 3.3125000 3.3125000 0 1 1 291.68750 -437.59375 z" opacity=".478" transform="matrix(1.056604,0.000000,0.000000,1.056604,-65.19825,231.8634)"/><path fill="#888a85" fill-opacity="1" stroke="none" stroke-dasharray="none" stroke-dashoffset="0" stroke-linecap="butt" stroke-linejoin="miter" stroke-miterlimit="2" stroke-opacity="1" stroke-width="1" d="M 245.46868,-233.96868 C 241.88930,-233.96868 238.99993,-231.04805 238.99993,-227.46868 C 238.99993,-225.09800 240.34936,-223.13089 242.24993,-221.99993 L 248.71868,-221.99993 C 250.61925,-223.13089 251.96868,-225.12924 251.96868,-227.49993 C 251.96868,-231.07931 249.04805,-233.96868 245.46868,-233.96868 z" opacity="1"/><path fill="url(#linearGradient13333)" fill-opacity="1" stroke="none" stroke-dasharray="none" stroke-dashoffset="0" stroke-linecap="butt" stroke-linejoin="miter" stroke-miterlimit="2" stroke-opacity="1" stroke-width="1" d="M 245.49993,-233.99993 C 241.91193,-233.99993 238.99993,-231.08792 238.99993,-227.49993 C 238.99993,-225.12353 240.34478,-223.13361 242.24993,-221.99993 L 248.74993,-221.99993 C 250.65508,-223.13361 251.99993,-225.12353 251.99993,-227.49993 C 251.99993,-231.08793 249.08793,-233.99992 245.49993,-233.99993 z" opacity=".478"/><path fill="url(#linearGradient13335)" fill-opacity="1" stroke="none" stroke-dasharray="none" stroke-dashoffset="0" stroke-linecap="butt" stroke-linejoin="miter" stroke-miterlimit="2" stroke-opacity="1" stroke-width="1" d="M 291.68750 -437.59375 A 3.3125000 3.3125000 0 1 1 285.06250,-437.59375 A 3.3125000 3.3125000 0 1 1 291.68750 -437.59375 z" opacity=".478" transform="matrix(0.905660,0.000000,0.000000,0.905660,-24.16977,171.3113)"/><path fill="#555753" fill-opacity="1" fill-rule="evenodd" stroke="none" stroke-linecap="butt" stroke-linejoin="miter" stroke-opacity="1" stroke-width="1" d="M 258.95633,-230.33389 C 258.95480,-227.64933 255.68707,-226.61994 255.68707,-226.61994 C 255.68707,-226.61994 258.03581,-228.24589 258.02392,-230.32495 C 258.02392,-230.32495 258.95633,-230.33389 258.95633,-230.33389 z"/><path fill="#888a85" fill-opacity="1" stroke="none" stroke-dasharray="none" stroke-dashoffset="0" stroke-linecap="butt" stroke-linejoin="miter" stroke-miterlimit="2" stroke-opacity="1" stroke-width="1" d="M 291.68750 -437.59375 A 3.3125000 3.3125000 0 1 1 285.06250,-437.59375 A 3.3125000 3.3125000 0 1 1 291.68750 -437.59375 z" opacity="1" transform="matrix(1.207547,0.000000,0.000000,1.207547,-98.22652,302.4154)"/><path fill="url(#linearGradient13337)" fill-opacity="1" stroke="none" stroke-dasharray="none" stroke-dashoffset="0" stroke-linecap="butt" stroke-linejoin="miter" stroke-miterlimit="2" stroke-opacity="1" stroke-width="1" d="M 291.68750 -437.59375 A 3.3125000 3.3125000 0 1 1 285.06250,-437.59375 A 3.3125000 3.3125000 0 1 1 291.68750 -437.59375 z" opacity=".478" transform="matrix(1.207547,0.000000,0.000000,1.207547,-98.22652,302.4154)"/></g><g transform="matrix(0.999675,0.000000,0.000000,1.000000,-286.8562,245.0000) translate(56.98577,3.983930)"><path fill="#888a85" fill-opacity="1" stroke="#555753" stroke-dasharray="none" stroke-dashoffset="0" stroke-linecap="butt" stroke-linejoin="miter" stroke-miterlimit="2" stroke-opacity="1" stroke-width="1" d="M 246.49993,-238.49993 C 244.22910,-238.49993 242.39002,-236.94965 241.78118,-234.87493 C 241.08795,-235.23876 240.33667,-235.49993 239.49993,-235.49993 C 236.73993,-235.49993 234.49992,-233.25994 234.49993,-230.49993 C 234.49993,-229.92100 234.66245,-229.39223 234.84368,-228.87493 C 233.47021,-228.10419 232.49993,-226.68593 232.49993,-224.99993 C 232.49993,-222.51593 234.51593,-220.49992 236.99993,-220.49993 C 237.17706,-220.49993 255.82280,-220.49993 255.99993,-220.49993 C 258.48392,-220.49993 260.49993,-222.51593 260.49993,-224.99993 C 260.49993,-226.68593 259.52965,-228.10419 258.15618,-228.87493 C 258.33742,-229.39222 258.49993,-229.92101 258.49993,-230.49993 C 258.49993,-233.25993 256.25993,-235.49992 253.49993,-235.49993 C 252.66319,-235.49993 251.91191,-235.23876 251.21868,-234.87493 C 250.60984,-236.94965 248.77076,-238.49993 246.49993,-238.49993 z"/><path fill="url(#linearGradient13339)" fill-opacity="1" stroke="none" stroke-dasharray="none" stroke-dashoffset="0" stroke-linecap="butt" stroke-linejoin="miter" stroke-miterlimit="2" stroke-opacity="1" stroke-width="1" d="M 246.49993,-237.99993 C 244.31021,-237.99993 242.77633,-236.66416 242.10438,-234.15641 C 241.43592,-234.50003 240.55679,-234.98976 239.74993,-234.98976 C 237.03342,-234.98976 234.99479,-233.05094 234.99480,-230.44422 C 234.99480,-229.89745 235.26201,-229.11078 235.43676,-228.62221 C 234.11233,-227.89426 232.99993,-226.73171 232.99993,-225.24966 C 232.99993,-222.90361 234.54610,-220.99957 237.33921,-220.99957 C 237.51002,-220.99957 255.48985,-220.99957 255.66065,-220.99957 C 258.43166,-220.99957 259.99993,-222.90361 259.99993,-225.24966 C 259.99993,-226.84203 258.88753,-227.91635 257.56310,-228.64430 C 257.73786,-229.13286 258.02717,-229.89746 258.02717,-230.44422 C 258.02717,-233.05093 255.91136,-235.01185 253.24994,-235.01186 C 252.44307,-235.01186 251.60813,-234.52212 250.93967,-234.17850 C 250.29082,-236.60004 248.68966,-237.99993 246.49993,-237.99993 z" opacity="1"/><path fill="#888a85" fill-opacity="1" stroke="none" stroke-dasharray="none" stroke-dashoffset="0" stroke-linecap="butt" stroke-linejoin="miter" stroke-miterlimit="2" stroke-opacity="1" stroke-width="1" d="M 291.68750 -437.59375 A 3.3125000 3.3125000 0 1 1 285.06250,-437.59375 A 3.3125000 3.3125000 0 1 1 291.68750 -437.59375 z" opacity="1" transform="matrix(1.056604,0.000000,0.000000,1.056604,-58.19825,228.8634)"/><path fill="url(#linearGradient13341)" fill-opacity="1" stroke="none" stroke-dasharray="none" stroke-dashoffset="0" stroke-linecap="butt" stroke-linejoin="miter" stroke-miterlimit="2" stroke-opacity="1" stroke-width="1" d="M 291.68750 -437.59375 A 3.3125000 3.3125000 0 1 1 285.06250,-437.59375 A 3.3125000 3.3125000 0 1 1 291.68750 -437.59375 z" opacity=".478" transform="matrix(1.056604,0.000000,0.000000,1.056604,-58.19825,228.8634)"/><rect width="20" height="9" x="237" y="-231" fill="#888a85" fill-opacity="1" stroke="none" stroke-dasharray="none" stroke-dashoffset="0" stroke-linecap="butt" stroke-linejoin="miter" stroke-miterlimit="2" stroke-opacity="1" stroke-width="1" opacity="1"/><path fill="#888a85" fill-opacity="1" stroke="none" stroke-dasharray="none" stroke-dashoffset="0" stroke-linecap="butt" stroke-linejoin="miter" stroke-miterlimit="2" stroke-opacity="1" stroke-width="1" d="M 291.68750 -437.59375 A 3.3125000 3.3125000 0 1 1 285.06250,-437.59375 A 3.3125000 3.3125000 0 1 1 291.68750 -437.59375 z" opacity="1" transform="matrix(0.905660,0.000000,0.000000,0.905660,-24.16987,171.3114)"/><path fill="#888a85" fill-opacity="1" stroke="none" stroke-dasharray="none" stroke-dashoffset="0" stroke-linecap="butt" stroke-linejoin="miter" stroke-miterlimit="2" stroke-opacity="1" stroke-width="1" d="M 291.68750 -437.59375 A 3.3125000 3.3125000 0 1 1 285.06250,-437.59375 A 3.3125000 3.3125000 0 1 1 291.68750 -437.59375 z" opacity="1" transform="matrix(1.056604,0.000000,0.000000,1.056604,-51.19818,231.8633)"/><path fill="url(#linearGradient13343)" fill-opacity="1" stroke="none" stroke-dasharray="none" stroke-dashoffset="0" stroke-linecap="butt" stroke-linejoin="miter" stroke-miterlimit="2" stroke-opacity="1" stroke-width="1" d="M 291.68750 -437.59375 A 3.3125000 3.3125000 0 1 1 285.06250,-437.59375 A 3.3125000 3.3125000 0 1 1 291.68750 -437.59375 z" opacity=".478" transform="matrix(1.056604,0.000000,0.000000,1.056604,-51.19825,231.8634)"/><path fill="#888a85" fill-opacity="1" stroke="none" stroke-dasharray="none" stroke-dashoffset="0" stroke-linecap="butt" stroke-linejoin="miter" stroke-miterlimit="2" stroke-opacity="1" stroke-width="1" d="M 291.68750 -437.59375 A 3.3125000 3.3125000 0 1 1 285.06250,-437.59375 A 3.3125000 3.3125000 0 1 1 291.68750 -437.59375 z" opacity="1" transform="matrix(1.056604,0.000000,0.000000,1.056604,-65.19825,231.8634)"/><path fill="url(#linearGradient13345)" fill-opacity="1" stroke="none" stroke-dasharray="none" stroke-dashoffset="0" stroke-linecap="butt" stroke-linejoin="miter" stroke-miterlimit="2" stroke-opacity="1" stroke-width="1" d="M 291.68750 -437.59375 A 3.3125000 3.3125000 0 1 1 285.06250,-437.59375 A 3.3125000 3.3125000 0 1 1 291.68750 -437.59375 z" opacity=".478" transform="matrix(1.056604,0.000000,0.000000,1.056604,-65.19825,231.8634)"/><path fill="#888a85" fill-opacity="1" stroke="none" stroke-dasharray="none" stroke-dashoffset="0" stroke-linecap="butt" stroke-linejoin="miter" stroke-miterlimit="2" stroke-opacity="1" stroke-width="1" d="M 245.46868,-233.96868 C 241.88930,-233.96868 238.99993,-231.04805 238.99993,-227.46868 C 238.99993,-225.09800 240.34936,-223.13089 242.24993,-221.99993 L 248.71868,-221.99993 C 250.61925,-223.13089 251.96868,-225.12924 251.96868,-227.49993 C 251.96868,-231.07931 249.04805,-233.96868 245.46868,-233.96868 z" opacity="1"/><path fill="url(#linearGradient13347)" fill-opacity="1" stroke="none" stroke-dasharray="none" stroke-dashoffset="0" stroke-linecap="butt" stroke-linejoin="miter" stroke-miterlimit="2" stroke-opacity="1" stroke-width="1" d="M 245.49993,-233.99993 C 241.91193,-233.99993 238.99993,-231.08792 238.99993,-227.49993 C 238.99993,-225.12353 240.34478,-223.13361 242.24993,-221.99993 L 248.74993,-221.99993 C 250.65508,-223.13361 251.99993,-225.12353 251.99993,-227.49993 C 251.99993,-231.08793 249.08793,-233.99992 245.49993,-233.99993 z" opacity=".478"/><path fill="url(#linearGradient13350)" fill-opacity="1" stroke="none" stroke-dasharray="none" stroke-dashoffset="0" stroke-linecap="butt" stroke-linejoin="miter" stroke-miterlimit="2" stroke-opacity="1" stroke-width="1" d="M 291.68750 -437.59375 A 3.3125000 3.3125000 0 1 1 285.06250,-437.59375 A 3.3125000 3.3125000 0 1 1 291.68750 -437.59375 z" opacity=".478" transform="matrix(0.905660,0.000000,0.000000,0.905660,-24.16977,171.3113)"/><path fill="#555753" fill-opacity="1" fill-rule="evenodd" stroke="none" stroke-linecap="butt" stroke-linejoin="miter" stroke-opacity="1" stroke-width="1" d="M 258.95633,-230.33389 C 258.95480,-227.64933 255.68707,-226.61994 255.68707,-226.61994 C 255.68707,-226.61994 258.03581,-228.24589 258.02392,-230.32495 C 258.02392,-230.32495 258.95633,-230.33389 258.95633,-230.33389 z"/><path fill="#888a85" fill-opacity="1" stroke="none" stroke-dasharray="none" stroke-dashoffset="0" stroke-linecap="butt" stroke-linejoin="miter" stroke-miterlimit="2" stroke-opacity="1" stroke-width="1" d="M 291.68750 -437.59375 A 3.3125000 3.3125000 0 1 1 285.06250,-437.59375 A 3.3125000 3.3125000 0 1 1 291.68750 -437.59375 z" opacity="1" transform="matrix(1.207547,0.000000,0.000000,1.207547,-98.22652,302.4154)"/><path fill="url(#linearGradient13352)" fill-opacity="1" stroke="none" stroke-dasharray="none" stroke-dashoffset="0" stroke-linecap="butt" stroke-linejoin="miter" stroke-miterlimit="2" stroke-opacity="1" stroke-width="1" d="M 291.68750 -437.59375 A 3.3125000 3.3125000 0 1 1 285.06250,-437.59375 A 3.3125000 3.3125000 0 1 1 291.68750 -437.59375 z" opacity=".478" transform="matrix(1.207547,0.000000,0.000000,1.207547,-98.22652,302.4154)"/></g></g><g><g><path fill="#729fcf" fill-opacity="1" stroke="#204a87" stroke-dasharray="none" stroke-dashoffset="0" stroke-linecap="butt" stroke-linejoin="miter" stroke-miterlimit="2" stroke-opacity="1" stroke-width="1.075" d="M 231.62587,-228.77086 C 230.58662,-229.36665 230.23015,-230.68774 230.83016,-231.71967 C 232.16166,-233.80243 233.93524,-233.26584 234.84231,-235.46138 C 236.10323,-234.12777 235.63545,-227.21367 231.62587,-228.77086 z" transform="translate(17.177973,-2) translate(-219.67784,275.47179)"/><path fill="url(#radialGradient8290)" fill-opacity="1" stroke="none" stroke-dashoffset="0" stroke-linecap="butt" stroke-linejoin="miter" stroke-miterlimit="0" stroke-opacity="1" stroke-width="1.075" d="M 234.31017,-229.9035 C 233.82059,-229.03976 232.73502,-228.74348 231.88703,-229.24216 C 231.03903,-229.74084 230.74816,-230.84657 231.23774,-231.71031 C 231.72733,-232.57405 233.84374,-232.16235 234.58388,-234 C 235.43187,-233.50133 234.79976,-230.76724 234.31017,-229.9035 z" opacity=".461" transform="translate(17.177973,-2) translate(-219.67784,275.47179)"/><path fill="url(#linearGradient8292)" fill-opacity="1" stroke="none" stroke-dashoffset="0" stroke-linecap="butt" stroke-linejoin="miter" stroke-miterlimit="0" stroke-opacity="1" stroke-width="1.075" d="M 233.02237,-229 C 228.40776,-230.07384 233.25985,-233.71939 234,-232.92154 C 230.4176,-231.55118 233.02237,-229 233.02237,-229 z" opacity="1" transform="translate(17.177973,-2) translate(-219.67784,275.47179)"/></g><g><path fill="#729fcf" fill-opacity="1" stroke="#204a87" stroke-dasharray="none" stroke-dashoffset="0" stroke-linecap="butt" stroke-linejoin="miter" stroke-miterlimit="2" stroke-opacity="1" stroke-width="1.075" d="M 231.62587,-228.77086 C 230.58662,-229.36665 230.23015,-230.68774 230.83016,-231.71967 C 232.16166,-233.80243 233.93524,-233.26584 234.84231,-235.46138 C 236.10323,-234.12777 235.63545,-227.21367 231.62587,-228.77086 z" transform="translate(17.177973,-2) translate(-239.67784,265.47959)"/><path fill="url(#radialGradient8294)" fill-opacity="1" stroke="none" stroke-dashoffset="0" stroke-linecap="butt" stroke-linejoin="miter" stroke-miterlimit="0" stroke-opacity="1" stroke-width="1.075" d="M 234.31017,-229.9035 C 233.82059,-229.03976 232.73502,-228.74348 231.88703,-229.24216 C 231.03903,-229.74084 230.74816,-230.84657 231.23774,-231.71031 C 231.72733,-232.57405 233.84374,-232.16235 234.58388,-234 C 235.43187,-233.50133 234.79976,-230.76724 234.31017,-229.9035 z" opacity=".461" transform="translate(17.177973,-2) translate(-239.67784,265.47959)"/><path fill="url(#linearGradient8296)" fill-opacity="1" stroke="none" stroke-dashoffset="0" stroke-linecap="butt" stroke-linejoin="miter" stroke-miterlimit="0" stroke-opacity="1" stroke-width="1.075" d="M 233.02237,-229 C 228.40776,-230.07384 233.25985,-233.71939 234,-232.92154 C 230.4176,-231.55118 233.02237,-229 233.02237,-229 z" opacity="1" transform="translate(17.177973,-2) translate(-239.67784,265.47959)"/></g><g><path fill="#729fcf" fill-opacity="1" stroke="#204a87" stroke-dasharray="none" stroke-dashoffset="0" stroke-linecap="butt" stroke-linejoin="miter" stroke-miterlimit="2" stroke-opacity="1" stroke-width="1.075" d="M 231.62587,-228.77086 C 230.58662,-229.36665 230.23015,-230.68774 230.83016,-231.71967 C 232.16166,-233.80243 233.93524,-233.26584 234.84231,-235.46138 C 236.10323,-234.12777 235.63545,-227.21367 231.62587,-228.77086 z" transform="translate(17.177973,-2) translate(-210.67944,272.47179)"/><path fill="url(#radialGradient8298)" fill-opacity="1" stroke="none" stroke-dashoffset="0" stroke-linecap="butt" stroke-linejoin="miter" stroke-miterlimit="0" stroke-opacity="1" stroke-width="1.075" d="M 234.31017,-229.9035 C 233.82059,-229.03976 232.73502,-228.74348 231.88703,-229.24216 C 231.03903,-229.74084 230.74816,-230.84657 231.23774,-231.71031 C 231.72733,-232.57405 233.84374,-232.16235 234.58388,-234 C 235.43187,-233.50133 234.79976,-230.76724 234.31017,-229.9035 z" opacity=".461" transform="translate(17.177973,-2) translate(-210.67944,272.47179)"/><path fill="url(#linearGradient8300)" fill-opacity="1" stroke="none" stroke-dashoffset="0" stroke-linecap="butt" stroke-linejoin="miter" stroke-miterlimit="0" stroke-opacity="1" stroke-width="1.075" d="M 233.02237,-229 C 228.40776,-230.07384 233.25985,-233.71939 234,-232.92154 C 230.4176,-231.55118 233.02237,-229 233.02237,-229 z" opacity="1" transform="translate(17.177973,-2) translate(-210.67944,272.47179)"/></g><g><path fill="#729fcf" fill-opacity="1" stroke="#204a87" stroke-dasharray="none" stroke-dashoffset="0" stroke-linecap="butt" stroke-linejoin="miter" stroke-miterlimit="2" stroke-opacity="1" stroke-width="1.075" d="M 231.62587,-228.77086 C 230.58662,-229.36665 230.23015,-230.68774 230.83016,-231.71967 C 232.16166,-233.80243 233.93524,-233.26584 234.84231,-235.46138 C 236.10323,-234.12777 235.63545,-227.21367 231.62587,-228.77086 z" transform="translate(17.177973,-2) translate(-241.67794,275.47309)"/><path fill="url(#radialGradient8302)" fill-opacity="1" stroke="none" stroke-dashoffset="0" stroke-linecap="butt" stroke-linejoin="miter" stroke-miterlimit="0" stroke-opacity="1" stroke-width="1.075" d="M 234.31017,-229.9035 C 233.82059,-229.03976 232.73502,-228.74348 231.88703,-229.24216 C 231.03903,-229.74084 230.74816,-230.84657 231.23774,-231.71031 C 231.72733,-232.57405 233.84374,-232.16235 234.58388,-234 C 235.43187,-233.50133 234.79976,-230.76724 234.31017,-229.9035 z" opacity=".461" transform="translate(17.177973,-2) translate(-241.67794,275.47309)"/><path fill="url(#linearGradient8304)" fill-opacity="1" stroke="none" stroke-dashoffset="0" stroke-linecap="butt" stroke-linejoin="miter" stroke-miterlimit="0" stroke-opacity="1" stroke-width="1.075" d="M 233.02237,-229 C 228.40776,-230.07384 233.25985,-233.71939 234,-232.92154 C 230.4176,-231.55118 233.02237,-229 233.02237,-229 z" opacity="1" transform="translate(17.177973,-2) translate(-241.67794,275.47309)"/></g><g><path fill="#729fcf" fill-opacity="1" stroke="#204a87" stroke-dasharray="none" stroke-dashoffset="0" stroke-linecap="butt" stroke-linejoin="miter" stroke-miterlimit="2" stroke-opacity="1" stroke-width="1.075" d="M 231.62587,-228.77086 C 230.58662,-229.36665 230.23015,-230.68774 230.83016,-231.71967 C 232.16166,-233.80243 233.93524,-233.26584 234.84231,-235.46138 C 236.10323,-234.12777 235.63545,-227.21367 231.62587,-228.77086 z" transform="translate(17.177973,-2) translate(-231.67944,270.47179)"/><path fill="url(#radialGradient8306)" fill-opacity="1" stroke="none" stroke-dashoffset="0" stroke-linecap="butt" stroke-linejoin="miter" stroke-miterlimit="0" stroke-opacity="1" stroke-width="1.075" d="M 234.31017,-229.9035 C 233.82059,-229.03976 232.73502,-228.74348 231.88703,-229.24216 C 231.03903,-229.74084 230.74816,-230.84657 231.23774,-231.71031 C 231.72733,-232.57405 233.84374,-232.16235 234.58388,-234 C 235.43187,-233.50133 234.79976,-230.76724 234.31017,-229.9035 z" opacity=".461" transform="translate(17.177973,-2) translate(-231.67944,270.47179)"/><path fill="url(#linearGradient8308)" fill-opacity="1" stroke="none" stroke-dashoffset="0" stroke-linecap="butt" stroke-linejoin="miter" stroke-miterlimit="0" stroke-opacity="1" stroke-width="1.075" d="M 233.02237,-229 C 228.40776,-230.07384 233.25985,-233.71939 234,-232.92154 C 230.4176,-231.55118 233.02237,-229 233.02237,-229 z" opacity="1" transform="translate(17.177973,-2) translate(-231.67944,270.47179)"/></g><g><path fill="#729fcf" fill-opacity="1" stroke="#204a87" stroke-dasharray="none" stroke-dashoffset="0" stroke-linecap="butt" stroke-linejoin="miter" stroke-miterlimit="2" stroke-opacity="1" stroke-width="1.075" d="M 231.62587,-228.77086 C 230.58662,-229.36665 230.23015,-230.68774 230.83016,-231.71967 C 232.16166,-233.80243 233.93524,-233.26584 234.84231,-235.46138 C 236.10323,-234.12777 235.63545,-227.21367 231.62587,-228.77086 z" transform="translate(17.177973,-2) translate(-217.67944,265.47959)"/><path fill="url(#radialGradient8310)" fill-opacity="1" stroke="none" stroke-dashoffset="0" stroke-linecap="butt" stroke-linejoin="miter" stroke-miterlimit="0" stroke-opacity="1" stroke-width="1.075" d="M 234.31017,-229.9035 C 233.82059,-229.03976 232.73502,-228.74348 231.88703,-229.24216 C 231.03903,-229.74084 230.74816,-230.84657 231.23774,-231.71031 C 231.72733,-232.57405 233.84374,-232.16235 234.58388,-234 C 235.43187,-233.50133 234.79976,-230.76724 234.31017,-229.9035 z" opacity=".461" transform="translate(17.177973,-2) translate(-217.67944,265.47959)"/><path fill="url(#linearGradient8312)" fill-opacity="1" stroke="none" stroke-dashoffset="0" stroke-linecap="butt" stroke-linejoin="miter" stroke-miterlimit="0" stroke-opacity="1" stroke-width="1.075" d="M 233.02237,-229 C 228.40776,-230.07384 233.25985,-233.71939 234,-232.92154 C 230.4176,-231.55118 233.02237,-229 233.02237,-229 z" opacity="1" transform="translate(17.177973,-2) translate(-217.67944,265.47959)"/></g></g><g><path fill="#fff" fill-opacity="1" stroke="#729fcf" stroke-dasharray="none" stroke-dashoffset="0" stroke-linecap="butt" stroke-linejoin="miter" stroke-miterlimit="0" stroke-opacity="1" stroke-width="1.459" d="M 31.819805,-316.77872 A 2.2097087,2.2097087 0 1 1 27.400387,-316.77872 A 2.2097087,2.2097087 0 1 1 31.819805,-316.77872 z" opacity="1" transform="translate(-162.99643,221.88968) matrix(0.68552,0,0,0.68552,151.7017,27.15827)"/><path fill="#fff" fill-opacity="1" stroke="#729fcf" stroke-dasharray="none" stroke-dashoffset="0" stroke-linecap="butt" stroke-linejoin="miter" stroke-miterlimit="0" stroke-opacity="1" stroke-width="1.092" d="M 31.819805,-316.77872 A 2.2097087,2.2097087 0 1 1 27.400387,-316.77872 A 2.2097087,2.2097087 0 1 1 31.819805,-316.77872 z" opacity="1" transform="translate(-162.99643,221.88968) matrix(0.915572,0,0,0.915587,152.4091,103.5577)"/><path fill="#fff" fill-opacity="1" stroke="#729fcf" stroke-dasharray="none" stroke-dashoffset="0" stroke-linecap="butt" stroke-linejoin="miter" stroke-miterlimit="0" stroke-opacity="1" stroke-width="1.475" d="M 31.819805,-316.77872 A 2.2097087,2.2097087 0 1 1 27.400387,-316.77872 A 2.2097087,2.2097087 0 1 1 31.819805,-316.77872 z" opacity="1" transform="translate(-162.99643,221.88968) matrix(0.672406,0,0,0.683742,153.0708,34.62149)"/><path fill="#fff" fill-opacity="1" stroke="#729fcf" stroke-dasharray="none" stroke-dashoffset="0" stroke-linecap="butt" stroke-linejoin="miter" stroke-miterlimit="0" stroke-opacity="1" stroke-width="1.468" d="M 31.819805,-316.77872 A 2.2097087,2.2097087 0 1 1 27.400387,-316.77872 A 2.2097087,2.2097087 0 1 1 31.819805,-316.77872 z" opacity="1" transform="translate(-162.99643,221.88968) matrix(0.6823,0,0,0.680269,181.797,30.49471)"/><path fill="#fff" fill-opacity="1" stroke="#729fcf" stroke-dasharray="none" stroke-dashoffset="0" stroke-linecap="butt" stroke-linejoin="miter" stroke-miterlimit="0" stroke-opacity="1" stroke-width=".899" d="M 31.819805,-316.77872 A 2.2097087,2.2097087 0 1 1 27.400387,-316.77872 A 2.2097087,2.2097087 0 1 1 31.819805,-316.77872 z" opacity="1" transform="translate(-162.99643,221.88968) matrix(1.107132,0,0,1.117168,157.2177,164.9217)"/><path fill="#fff" fill-opacity="1" stroke="#729fcf" stroke-dasharray="none" stroke-dashoffset="0" stroke-linecap="butt" stroke-linejoin="miter" stroke-miterlimit="0" stroke-opacity="1" stroke-width=".918" d="M 31.819805,-316.77872 A 2.2097087,2.2097087 0 1 1 27.400387,-316.77872 A 2.2097087,2.2097087 0 1 1 31.819805,-316.77872 z" opacity="1" transform="translate(-162.99643,221.88968) matrix(1.127592,0,0,1.05183,161.6119,151.3731)"/><path fill="#fff" fill-opacity="1" stroke="#729fcf" stroke-dasharray="none" stroke-dashoffset="0" stroke-linecap="butt" stroke-linejoin="miter" stroke-miterlimit="0" stroke-opacity="1" stroke-width="1.464" d="M 31.819805,-316.77872 A 2.2097087,2.2097087 0 1 1 27.400387,-316.77872 A 2.2097087,2.2097087 0 1 1 31.819805,-316.77872 z" opacity="1" transform="translate(-162.99643,221.88968) matrix(0.685519,0,0,0.680487,164.6869,34.56369)"/></g></g></g></svg>