<svg xmlns="http://www.w3.org/2000/svg" xmlns:svg="http://www.w3.org/2000/svg" xmlns:xlink="http://www.w3.org/1999/xlink" id="svg1306" width="48" height="48"><defs id="defs1308"><linearGradient id="linearGradient10630" x1="284.802" x2="288.9" y1="-441.233" y2="-436.831" gradientUnits="userSpaceOnUse" xlink:href="#linearGradient6538"/><linearGradient id="linearGradient10628" x1="286.666" x2="289.766" y1="-439.484" y2="-436.707" gradientUnits="userSpaceOnUse" xlink:href="#linearGradient6549"/><linearGradient id="linearGradient10626" x1="275.942" x2="279.975" y1="-437.105" y2="-431.918" gradientUnits="userSpaceOnUse" xlink:href="#linearGradient6527"/><linearGradient id="linearGradient10624" x1="285.941" x2="289.391" y1="-439.939" y2="-436.443" gradientUnits="userSpaceOnUse" xlink:href="#linearGradient6538"/><linearGradient id="linearGradient10622" x1="286.512" x2="289.854" y1="-441.291" y2="-436.145" gradientUnits="userSpaceOnUse" xlink:href="#linearGradient6513"/><linearGradient id="linearGradient10620" x1="287.517" x2="289.676" y1="-439.753" y2="-436.322" gradientUnits="userSpaceOnUse" xlink:href="#linearGradient6497"/><linearGradient id="linearGradient10618" x1="271.022" x2="285.029" y1="-441.052" y2="-431.97" gradientUnits="userSpaceOnUse" xlink:href="#linearGradient6470"/><linearGradient id="linearGradient10616" x1="284.802" x2="288.9" y1="-441.233" y2="-436.831" gradientUnits="userSpaceOnUse" xlink:href="#linearGradient6538"/><linearGradient id="linearGradient6549"><stop id="stop6551" offset="0" stop-color="#fff" stop-opacity="1"/><stop id="stop6553" offset="1" stop-color="#fff" stop-opacity="0"/></linearGradient><linearGradient id="linearGradient10614" x1="286.666" x2="289.766" y1="-439.484" y2="-436.707" gradientUnits="userSpaceOnUse" xlink:href="#linearGradient6549"/><linearGradient id="linearGradient6527"><stop id="stop6530" offset="0" stop-color="#fff" stop-opacity="1"/><stop id="stop6532" offset="1" stop-color="#fff" stop-opacity="0"/></linearGradient><linearGradient id="linearGradient10612" x1="275.942" x2="279.975" y1="-437.105" y2="-431.918" gradientUnits="userSpaceOnUse" xlink:href="#linearGradient6527"/><linearGradient id="linearGradient6538"><stop id="stop6540" offset="0" stop-color="#fff" stop-opacity="1"/><stop id="stop6542" offset="1" stop-color="#fff" stop-opacity="0"/></linearGradient><linearGradient id="linearGradient10610" x1="285.941" x2="289.391" y1="-439.939" y2="-436.443" gradientUnits="userSpaceOnUse" xlink:href="#linearGradient6538"/><linearGradient id="linearGradient6513"><stop id="stop6515" offset="0" stop-color="#fff" stop-opacity="1"/><stop id="stop6517" offset="1" stop-color="#fff" stop-opacity="0"/></linearGradient><linearGradient id="linearGradient10608" x1="286.512" x2="289.854" y1="-441.291" y2="-436.145" gradientUnits="userSpaceOnUse" xlink:href="#linearGradient6513"/><linearGradient id="linearGradient6497"><stop id="stop6499" offset="0" stop-color="#fff" stop-opacity="1"/><stop id="stop6501" offset="1" stop-color="#fff" stop-opacity="0"/></linearGradient><linearGradient id="linearGradient10606" x1="287.517" x2="289.676" y1="-439.753" y2="-436.322" gradientUnits="userSpaceOnUse" xlink:href="#linearGradient6497"/><linearGradient id="linearGradient6470"><stop id="stop6472" offset="0" stop-color="#fff" stop-opacity="1"/><stop id="stop6474" offset="1" stop-color="#fff" stop-opacity="0"/></linearGradient><linearGradient id="linearGradient10604" x1="271.022" x2="285.029" y1="-441.052" y2="-431.97" gradientUnits="userSpaceOnUse" xlink:href="#linearGradient6470"/><linearGradient id="linearGradient7834"><stop id="stop7836" offset="0" stop-color="#fff" stop-opacity="1"/><stop id="stop7838" offset="1" stop-color="#fff" stop-opacity="0"/></linearGradient><linearGradient id="linearGradient10602" x1="-156.29" x2="-153.098" y1="-100.534" y2="-96.545" gradientUnits="userSpaceOnUse" xlink:href="#linearGradient7834"/><linearGradient id="linearGradient8397"><stop id="stop8400" offset="0" stop-color="#fff" stop-opacity="1"/><stop id="stop8402" offset="1" stop-color="#fff" stop-opacity="0"/></linearGradient><linearGradient id="linearGradient10600" x1="238.005" x2="245.655" y1="-388.475" y2="-382.645" gradientUnits="userSpaceOnUse" xlink:href="#linearGradient8397"/><linearGradient id="linearGradient8315"><stop id="stop8317" offset="0" stop-color="#fff" stop-opacity="1"/><stop id="stop8319" offset="1" stop-color="#fff" stop-opacity="0"/></linearGradient><linearGradient id="linearGradient10598" x1="230.876" x2="235.257" y1="-390.44" y2="-386.959" gradientUnits="userSpaceOnUse" xlink:href="#linearGradient8315"/><linearGradient id="linearGradient8381"><stop id="stop8383" offset="0" stop-color="#fff" stop-opacity="1"/><stop id="stop8385" offset="1" stop-color="#fff" stop-opacity="0"/></linearGradient><linearGradient id="linearGradient10596" x1="246.74" x2="252.698" y1="-391.314" y2="-385.352" gradientUnits="userSpaceOnUse" xlink:href="#linearGradient8381"/><linearGradient id="linearGradient8331"><stop id="stop8333" offset="0" stop-color="#fff" stop-opacity="1"/><stop id="stop8335" offset="1" stop-color="#fff" stop-opacity="0"/></linearGradient><linearGradient id="linearGradient10594" x1="240.074" x2="245.827" y1="-393.407" y2="-388.55" gradientUnits="userSpaceOnUse" xlink:href="#linearGradient8331"/><linearGradient id="linearGradient8302"><stop id="stop8304" offset="0" stop-color="#fff" stop-opacity="1"/><stop id="stop8306" offset="1" stop-color="#fff" stop-opacity="0"/></linearGradient><linearGradient id="linearGradient10592" x1="228.503" x2="278.915" y1="-392.306" y2="-375.38" gradientTransform="translate(122.0230,102.0000)" gradientUnits="userSpaceOnUse" xlink:href="#linearGradient8302"/></defs><metadata id="metadata1311"/><g id="layer1"><g><path fill="#888a85" fill-opacity="1" stroke="none" stroke-dasharray="none" stroke-dashoffset="0" stroke-linecap="butt" stroke-linejoin="miter" stroke-miterlimit="2" stroke-opacity="1" stroke-width="1" d="M 364.52300,-296.00000 C 361.75058,-296.00000 359.41477,-294.42629 358.11675,-292.18750 C 357.17239,-292.66254 356.15156,-293.00000 355.02300,-293.00000 C 351.15900,-293.00000 348.02300,-289.86400 348.02300,-286.00000 C 348.02300,-282.13600 351.15900,-279.00000 355.02300,-279.00000 C 357.44267,-279.00000 359.45309,-280.31932 360.71050,-282.18750 C 361.84470,-281.49788 363.09948,-281.00000 364.52300,-281.00000 C 365.43612,-281.00000 366.27595,-281.23202 367.08550,-281.53125 C 367.59544,-280.66352 368.26462,-279.95153 369.08550,-279.37500 C 369.07826,-279.24462 369.02300,-279.13218 369.02300,-279.00000 C 369.02300,-275.13600 372.15899,-272.00000 376.02300,-272.00000 C 379.88700,-272.00000 383.02300,-275.13600 383.02300,-279.00000 C 383.02300,-281.36969 381.76402,-283.35834 379.96050,-284.62500 C 379.96774,-284.75538 380.02300,-284.86782 380.02300,-285.00000 C 380.02300,-288.86400 376.88701,-292.00000 373.02300,-292.00000 C 372.40030,-292.00000 371.84781,-291.77781 371.27300,-291.62500 C 370.07847,-294.18384 367.53166,-296.00000 364.52300,-296.00000 z" opacity="1" transform="translate(-340.0455,298.0001)"/><path fill="url(#linearGradient10592)" fill-opacity="1" stroke="none" stroke-dasharray="none" stroke-dashoffset="0" stroke-linecap="butt" stroke-linejoin="miter" stroke-miterlimit="2" stroke-opacity="1" stroke-width="1" d="M 364.52300,-295.00000 C 361.74252,-295.00000 359.38849,-293.23815 358.46050,-290.78125 C 357.47508,-291.49069 356.32907,-292.00000 355.02300,-292.00000 C 351.71100,-292.00000 349.02300,-289.31200 349.02300,-286.00000 C 349.02300,-282.68800 351.71100,-280.00000 355.02300,-280.00000 C 357.45075,-280.00000 359.51624,-281.45558 360.46050,-283.53125 C 361.58126,-282.61369 362.96264,-282.00000 364.52300,-282.00000 C 365.59754,-282.00000 366.56728,-282.31896 367.46050,-282.78125 C 367.85890,-281.78149 368.56164,-280.99493 369.39800,-280.34375 C 369.21799,-279.74813 369.02300,-279.15410 369.02300,-278.50000 C 369.02300,-274.91200 371.93500,-272.00000 375.52300,-272.00000 C 379.11100,-272.00000 382.02300,-274.91200 382.02300,-278.50000 C 382.02300,-280.86079 380.68867,-282.83019 378.80425,-283.96875 C 378.86684,-284.31598 379.02300,-284.63483 379.02300,-285.00000 C 379.02300,-288.31200 376.33500,-291.00000 373.02300,-291.00000 C 372.17002,-291.00000 371.35170,-290.82132 370.61675,-290.50000 C 369.76298,-293.09388 367.40151,-294.99999 364.52300,-295.00000 z" opacity="1" transform="translate(-340.0455,298.0001)"/><path fill="#c4c5c2" fill-opacity="1" stroke="none" stroke-dasharray="none" stroke-dashoffset="0" stroke-linecap="butt" stroke-linejoin="miter" stroke-miterlimit="2" stroke-opacity="1" stroke-width="1" d="M 248.54804 -383.66660 A 6.7396116 6.7396116 0 1 1 235.06881,-383.66660 A 6.7396116 6.7396116 0 1 1 248.54804 -383.66660 z" opacity="1" transform="translate(-340.0455,298.0001) matrix(0.964447,0.000000,0.000000,0.964447,142.3115,91.52621)"/><g><path fill="#c4c5c2" fill-opacity="1" stroke="none" stroke-dasharray="none" stroke-dashoffset="0" stroke-linecap="butt" stroke-linejoin="miter" stroke-miterlimit="2" stroke-opacity="1" stroke-width="1" d="M 250.18322 -389.30136 A 6.2313786 6.2313786 0 1 1 237.72046,-389.30136 A 6.2313786 6.2313786 0 1 1 250.18322 -389.30136 z" opacity="1" transform="translate(-340.0455,298.0001) translate(122.0230,102.0000) matrix(0.882630,0.000000,0.000000,0.882630,27.18078,-46.89094)"/><path fill="url(#linearGradient10594)" fill-opacity="1" stroke="none" stroke-dasharray="none" stroke-dashoffset="0" stroke-linecap="butt" stroke-linejoin="miter" stroke-miterlimit="2" stroke-opacity="1" stroke-width="1" d="M 250.18322 -389.30136 A 6.2313786 6.2313786 0 1 1 237.72046,-389.30136 A 6.2313786 6.2313786 0 1 1 250.18322 -389.30136 z" opacity="1" transform="translate(-340.0455,298.0001) translate(122.0230,102.0000) matrix(0.882630,0.000000,0.000000,0.882630,27.18078,-46.89094)"/></g><g><path fill="#c4c5c2" fill-opacity="1" stroke="none" stroke-dasharray="none" stroke-dashoffset="0" stroke-linecap="butt" stroke-linejoin="miter" stroke-miterlimit="2" stroke-opacity="1" stroke-width="1" d="M 257.25429 -385.78790 A 6.0325046 6.0325046 0 1 1 245.18928,-385.78790 A 6.0325046 6.0325046 0 1 1 257.25429 -385.78790 z" opacity="1" transform="translate(-340.0455,298.0001) translate(122.0230,102.0000) matrix(0.911728,0.000000,0.000000,0.911728,21.45407,-34.76637)"/><path fill="url(#linearGradient10596)" fill-opacity="1" stroke="none" stroke-dasharray="none" stroke-dashoffset="0" stroke-linecap="butt" stroke-linejoin="miter" stroke-miterlimit="2" stroke-opacity="1" stroke-width="1" d="M 257.25429 -385.78790 A 6.0325046 6.0325046 0 1 1 245.18928,-385.78790 A 6.0325046 6.0325046 0 1 1 257.25429 -385.78790 z" opacity="1" transform="translate(-340.0455,298.0001) translate(122.0230,102.0000) matrix(0.911728,0.000000,0.000000,0.911728,21.45407,-34.76637)"/></g><g><path fill="#c4c5c2" fill-opacity="1" stroke="none" stroke-dasharray="none" stroke-dashoffset="0" stroke-linecap="butt" stroke-linejoin="miter" stroke-miterlimit="2" stroke-opacity="1" stroke-width="1" d="M 237.80885 -387.88715 A 4.3752232 4.3752232 0 1 1 229.05840,-387.88715 A 4.3752232 4.3752232 0 1 1 237.80885 -387.88715 z" opacity="1" transform="translate(-340.0455,298.0001) translate(122.0230,102.0000) matrix(1.142799,0.000000,0.000000,1.142799,-33.76771,55.27704)"/><path fill="url(#linearGradient10598)" fill-opacity="1" stroke="none" stroke-dasharray="none" stroke-dashoffset="0" stroke-linecap="butt" stroke-linejoin="miter" stroke-miterlimit="2" stroke-opacity="1" stroke-width="1" d="M 237.80885 -387.88715 A 4.3752232 4.3752232 0 1 1 229.05840,-387.88715 A 4.3752232 4.3752232 0 1 1 237.80885 -387.88715 z" opacity="1" transform="translate(-340.0455,298.0001) translate(122.0230,102.0000) matrix(1.142799,0.000000,0.000000,1.142799,-33.76771,55.27704)"/></g><g><path fill="#c4c5c2" fill-opacity="1" stroke="none" stroke-dasharray="none" stroke-dashoffset="0" stroke-linecap="butt" stroke-linejoin="miter" stroke-miterlimit="2" stroke-opacity="1" stroke-width="1" d="M 248.54804 -383.66660 A 6.7396116 6.7396116 0 1 1 235.06881,-383.66660 A 6.7396116 6.7396116 0 1 1 248.54804 -383.66660 z" opacity="1" transform="translate(-340.0455,298.0001) translate(122.0230,102.0000) matrix(1.038636,0.000000,0.000000,1.038636,-9.150940,14.48994)"/><path fill="url(#linearGradient10600)" fill-opacity="1" stroke="none" stroke-dasharray="none" stroke-dashoffset="0" stroke-linecap="butt" stroke-linejoin="miter" stroke-miterlimit="2" stroke-opacity="1" stroke-width="1" d="M 248.54804 -383.66660 A 6.7396116 6.7396116 0 1 1 235.06881,-383.66660 A 6.7396116 6.7396116 0 1 1 248.54804 -383.66660 z" opacity="1" transform="translate(-340.0455,298.0001) translate(122.0230,102.0000) matrix(1.038636,0.000000,0.000000,1.038636,-9.150933,14.48993)"/></g><g stroke="none"><path fill="#c4c5c2" fill-opacity="1" stroke="none" stroke-dasharray="none" stroke-dashoffset="0" stroke-linecap="butt" stroke-linejoin="miter" stroke-miterlimit="0" stroke-opacity="1" stroke-width=".331" d="M -151.93750 -96.937500 A 3.1250000 3.1250000 0 1 1 -158.18750,-96.937500 A 3.1250000 3.1250000 0 1 1 -151.93750 -96.937500 z" opacity="1" transform="translate(-340.0455,298.0001) matrix(0.935028,0.000000,0.000000,0.935028,499.8484,-187.6162) matrix(1.737733,0.000000,0.000000,1.737733,110.8322,70.07649)"/><path fill="url(#linearGradient10602)" fill-opacity="1" stroke="none" stroke-dasharray="none" stroke-dashoffset="0" stroke-linecap="butt" stroke-linejoin="miter" stroke-miterlimit="0" stroke-opacity="1" stroke-width=".452" d="M -151.93750 -96.937500 A 3.1250000 3.1250000 0 1 1 -158.18750,-96.937500 A 3.1250000 3.1250000 0 1 1 -151.93750 -96.937500 z" opacity="1" transform="translate(-340.0455,298.0001) matrix(0.935028,0.000000,0.000000,0.935028,499.8484,-187.6162) matrix(1.737733,0.000000,0.000000,1.737733,110.8948,70.01402)"/></g><g transform="translate(-340.0455,298.0001) translate(91.02300,162.0000)"><path fill="#c4c5c2" fill-opacity="1" stroke="#888a85" stroke-dasharray="none" stroke-dashoffset="0" stroke-linecap="butt" stroke-linejoin="miter" stroke-miterlimit="2" stroke-opacity="1" stroke-width="1" d="M 280.50000,-445.50000 C 278.22917,-445.50000 276.39009,-443.94972 275.78125,-441.87500 C 275.08802,-442.23883 274.33674,-442.50000 273.50000,-442.50000 C 270.74000,-442.50000 268.49999,-440.26001 268.50000,-437.50000 C 268.50000,-436.92107 268.66252,-436.39230 268.84375,-435.87500 C 267.47028,-435.10426 266.50000,-433.68600 266.50000,-432.00000 C 266.50000,-429.51600 268.51600,-427.49999 271.00000,-427.50000 C 271.17713,-427.50000 289.82287,-427.50000 290.00000,-427.50000 C 292.48399,-427.50000 294.50000,-429.51600 294.50000,-432.00000 C 294.50000,-433.68600 293.52972,-435.10426 292.15625,-435.87500 C 292.33749,-436.39229 292.50000,-436.92108 292.50000,-437.50000 C 292.50000,-440.26000 290.26000,-442.49999 287.50000,-442.50000 C 286.66326,-442.50000 285.91198,-442.23883 285.21875,-441.87500 C 284.60991,-443.94972 282.77083,-445.50000 280.50000,-445.50000 z"/><path fill="url(#linearGradient10604)" fill-opacity="1" stroke="none" stroke-dasharray="none" stroke-dashoffset="0" stroke-linecap="butt" stroke-linejoin="miter" stroke-miterlimit="2" stroke-opacity="1" stroke-width="1" d="M 280.50000,-445.00000 C 278.31028,-445.00000 276.77640,-443.66423 276.10445,-441.15648 C 275.43599,-441.50010 274.55686,-441.98983 273.75000,-441.98983 C 271.03349,-441.98983 268.99486,-440.05101 268.99487,-437.44429 C 268.99487,-436.89752 269.26208,-436.11085 269.43683,-435.62228 C 268.11240,-434.89433 267.00000,-433.73178 267.00000,-432.24973 C 267.00000,-429.90368 268.54617,-427.99964 271.33928,-427.99964 C 271.51009,-427.99964 289.48992,-427.99964 289.66072,-427.99964 C 292.43173,-427.99964 294.00000,-429.90368 294.00000,-432.24973 C 294.00000,-433.84210 292.88760,-434.91642 291.56317,-435.64437 C 291.73793,-436.13293 292.02724,-436.89753 292.02724,-437.44429 C 292.02724,-440.05100 289.91143,-442.01192 287.25001,-442.01193 C 286.44314,-442.01193 285.60820,-441.52219 284.93974,-441.17857 C 284.29089,-443.60011 282.68973,-445.00000 280.50000,-445.00000 z" opacity="1"/><g><path fill="#c4c5c2" fill-opacity="1" stroke="none" stroke-dasharray="none" stroke-dashoffset="0" stroke-linecap="butt" stroke-linejoin="miter" stroke-miterlimit="2" stroke-opacity="1" stroke-width="1" d="M 291.68750 -437.59375 A 3.3125000 3.3125000 0 1 1 285.06250,-437.59375 A 3.3125000 3.3125000 0 1 1 291.68750 -437.59375 z" opacity="1" transform="matrix(1.056604,0.000000,0.000000,1.056604,-24.19818,21.86331)"/><path fill="url(#linearGradient10606)" fill-opacity="1" stroke="none" stroke-dasharray="none" stroke-dashoffset="0" stroke-linecap="butt" stroke-linejoin="miter" stroke-miterlimit="2" stroke-opacity="1" stroke-width="1" d="M 291.68750 -437.59375 A 3.3125000 3.3125000 0 1 1 285.06250,-437.59375 A 3.3125000 3.3125000 0 1 1 291.68750 -437.59375 z" opacity="1" transform="matrix(1.056604,0.000000,0.000000,1.056604,-24.19818,21.86331)"/></g><rect width="20" height="9" x="271" y="-438" fill="#c4c5c2" fill-opacity="1" stroke="none" stroke-dasharray="none" stroke-dashoffset="0" stroke-linecap="butt" stroke-linejoin="miter" stroke-miterlimit="2" stroke-opacity="1" stroke-width="1" opacity="1"/><path fill="#c4c5c2" fill-opacity="1" stroke="none" stroke-dasharray="none" stroke-dashoffset="0" stroke-linecap="butt" stroke-linejoin="miter" stroke-miterlimit="2" stroke-opacity="1" stroke-width="1" d="M 291.68750 -437.59375 A 3.3125000 3.3125000 0 1 1 285.06250,-437.59375 A 3.3125000 3.3125000 0 1 1 291.68750 -437.59375 z" opacity="1" transform="matrix(0.905660,0.000000,0.000000,0.905660,9.830195,-35.68869)"/><g><path fill="#c4c5c2" fill-opacity="1" stroke="none" stroke-dasharray="none" stroke-dashoffset="0" stroke-linecap="butt" stroke-linejoin="miter" stroke-miterlimit="2" stroke-opacity="1" stroke-width="1" d="M 291.68750 -437.59375 A 3.3125000 3.3125000 0 1 1 285.06250,-437.59375 A 3.3125000 3.3125000 0 1 1 291.68750 -437.59375 z" opacity="1" transform="matrix(1.056604,0.000000,0.000000,1.056604,-17.19811,24.86321)"/><path fill="url(#linearGradient10608)" fill-opacity="1" stroke="none" stroke-dasharray="none" stroke-dashoffset="0" stroke-linecap="butt" stroke-linejoin="miter" stroke-miterlimit="2" stroke-opacity="1" stroke-width="1" d="M 291.68750 -437.59375 A 3.3125000 3.3125000 0 1 1 285.06250,-437.59375 A 3.3125000 3.3125000 0 1 1 291.68750 -437.59375 z" opacity="1" transform="matrix(1.056604,0.000000,0.000000,1.056604,-17.19818,24.86331)"/></g><g><path fill="#c4c5c2" fill-opacity="1" stroke="none" stroke-dasharray="none" stroke-dashoffset="0" stroke-linecap="butt" stroke-linejoin="miter" stroke-miterlimit="2" stroke-opacity="1" stroke-width="1" d="M 291.68750 -437.59375 A 3.3125000 3.3125000 0 1 1 285.06250,-437.59375 A 3.3125000 3.3125000 0 1 1 291.68750 -437.59375 z" opacity="1" transform="matrix(1.056604,0.000000,0.000000,1.056604,-31.19818,24.86331)"/><path fill="url(#linearGradient10610)" fill-opacity="1" stroke="none" stroke-dasharray="none" stroke-dashoffset="0" stroke-linecap="butt" stroke-linejoin="miter" stroke-miterlimit="2" stroke-opacity="1" stroke-width="1" d="M 291.68750 -437.59375 A 3.3125000 3.3125000 0 1 1 285.06250,-437.59375 A 3.3125000 3.3125000 0 1 1 291.68750 -437.59375 z" opacity="1" transform="matrix(1.056604,0.000000,0.000000,1.056604,-31.19818,24.86331)"/></g><g><path fill="#c4c5c2" fill-opacity="1" stroke="none" stroke-dasharray="none" stroke-dashoffset="0" stroke-linecap="butt" stroke-linejoin="miter" stroke-miterlimit="2" stroke-opacity="1" stroke-width="1" d="M 280.46875,-440.96875 C 276.88937,-440.96875 274.00000,-438.04812 274.00000,-434.46875 C 274.00000,-432.09807 275.34943,-430.13096 277.25000,-429.00000 L 283.71875,-429.00000 C 285.61932,-430.13096 286.96875,-432.12931 286.96875,-434.50000 C 286.96875,-438.07938 284.04812,-440.96875 280.46875,-440.96875 z" opacity="1" transform="translate(-1.000000,0.000000)"/><path fill="url(#linearGradient10612)" fill-opacity="1" stroke="none" stroke-dasharray="none" stroke-dashoffset="0" stroke-linecap="butt" stroke-linejoin="miter" stroke-miterlimit="2" stroke-opacity="1" stroke-width="1" d="M 280.50000,-441.00000 C 276.91200,-441.00000 274.00000,-438.08799 274.00000,-434.50000 C 274.00000,-432.12360 275.34485,-430.13368 277.25000,-429.00000 L 283.75000,-429.00000 C 285.65515,-430.13368 287.00000,-432.12360 287.00000,-434.50000 C 287.00000,-438.08800 284.08800,-440.99999 280.50000,-441.00000 z" opacity="1" transform="translate(-1.000000,0.000000)"/></g><path fill="url(#linearGradient10614)" fill-opacity="1" stroke="none" stroke-dasharray="none" stroke-dashoffset="0" stroke-linecap="butt" stroke-linejoin="miter" stroke-miterlimit="2" stroke-opacity="1" stroke-width="1" d="M 291.68750 -437.59375 A 3.3125000 3.3125000 0 1 1 285.06250,-437.59375 A 3.3125000 3.3125000 0 1 1 291.68750 -437.59375 z" opacity="1" transform="matrix(0.905660,0.000000,0.000000,0.905660,9.830296,-35.68884)"/><path fill="#888a85" fill-opacity="1" fill-rule="evenodd" stroke="none" stroke-linecap="butt" stroke-linejoin="miter" stroke-opacity="1" stroke-width="1" d="M 292.95640,-437.33396 C 292.95487,-434.64940 289.68714,-433.62001 289.68714,-433.62001 C 289.68714,-433.62001 292.03588,-435.24596 292.02399,-437.32502 C 292.02399,-437.32502 292.95640,-437.33396 292.95640,-437.33396 z"/><g><path fill="#c4c5c2" fill-opacity="1" stroke="none" stroke-dasharray="none" stroke-dashoffset="0" stroke-linecap="butt" stroke-linejoin="miter" stroke-miterlimit="2" stroke-opacity="1" stroke-width="1" d="M 291.68750 -437.59375 A 3.3125000 3.3125000 0 1 1 285.06250,-437.59375 A 3.3125000 3.3125000 0 1 1 291.68750 -437.59375 z" opacity="1" transform="matrix(1.142857,0.000000,0.000000,1.142857,-28.57139,67.00008) matrix(1.056604,0.000000,0.000000,1.056604,-31.19818,24.86331)"/><path fill="url(#linearGradient10616)" fill-opacity="1" stroke="none" stroke-dasharray="none" stroke-dashoffset="0" stroke-linecap="butt" stroke-linejoin="miter" stroke-miterlimit="2" stroke-opacity="1" stroke-width="1" d="M 291.68750 -437.59375 A 3.3125000 3.3125000 0 1 1 285.06250,-437.59375 A 3.3125000 3.3125000 0 1 1 291.68750 -437.59375 z" opacity="1" transform="matrix(1.142857,0.000000,0.000000,1.142857,-28.57139,67.00008) matrix(1.056604,0.000000,0.000000,1.056604,-31.19818,24.86331)"/></g></g><g transform="translate(-340.0455,298.0001) translate(76.02041,158.0000)"><path fill="#c4c5c2" fill-opacity="1" stroke="#888a85" stroke-dasharray="none" stroke-dashoffset="0" stroke-linecap="butt" stroke-linejoin="miter" stroke-miterlimit="2" stroke-opacity="1" stroke-width="1" d="M 280.50000,-445.50000 C 278.22917,-445.50000 276.39009,-443.94972 275.78125,-441.87500 C 275.08802,-442.23883 274.33674,-442.50000 273.50000,-442.50000 C 270.74000,-442.50000 268.49999,-440.26001 268.50000,-437.50000 C 268.50000,-436.92107 268.66252,-436.39230 268.84375,-435.87500 C 267.47028,-435.10426 266.50000,-433.68600 266.50000,-432.00000 C 266.50000,-429.51600 268.51600,-427.49999 271.00000,-427.50000 C 271.17713,-427.50000 289.82287,-427.50000 290.00000,-427.50000 C 292.48399,-427.50000 294.50000,-429.51600 294.50000,-432.00000 C 294.50000,-433.68600 293.52972,-435.10426 292.15625,-435.87500 C 292.33749,-436.39229 292.50000,-436.92108 292.50000,-437.50000 C 292.50000,-440.26000 290.26000,-442.49999 287.50000,-442.50000 C 286.66326,-442.50000 285.91198,-442.23883 285.21875,-441.87500 C 284.60991,-443.94972 282.77083,-445.50000 280.50000,-445.50000 z"/><path fill="url(#linearGradient10618)" fill-opacity="1" stroke="none" stroke-dasharray="none" stroke-dashoffset="0" stroke-linecap="butt" stroke-linejoin="miter" stroke-miterlimit="2" stroke-opacity="1" stroke-width="1" d="M 280.50000,-445.00000 C 278.31028,-445.00000 276.77640,-443.66423 276.10445,-441.15648 C 275.43599,-441.50010 274.55686,-441.98983 273.75000,-441.98983 C 271.03349,-441.98983 268.99486,-440.05101 268.99487,-437.44429 C 268.99487,-436.89752 269.26208,-436.11085 269.43683,-435.62228 C 268.11240,-434.89433 267.00000,-433.73178 267.00000,-432.24973 C 267.00000,-429.90368 268.54617,-427.99964 271.33928,-427.99964 C 271.51009,-427.99964 289.48992,-427.99964 289.66072,-427.99964 C 292.43173,-427.99964 294.00000,-429.90368 294.00000,-432.24973 C 294.00000,-433.84210 292.88760,-434.91642 291.56317,-435.64437 C 291.73793,-436.13293 292.02724,-436.89753 292.02724,-437.44429 C 292.02724,-440.05100 289.91143,-442.01192 287.25001,-442.01193 C 286.44314,-442.01193 285.60820,-441.52219 284.93974,-441.17857 C 284.29089,-443.60011 282.68973,-445.00000 280.50000,-445.00000 z" opacity="1"/><g><path fill="#c4c5c2" fill-opacity="1" stroke="none" stroke-dasharray="none" stroke-dashoffset="0" stroke-linecap="butt" stroke-linejoin="miter" stroke-miterlimit="2" stroke-opacity="1" stroke-width="1" d="M 291.68750 -437.59375 A 3.3125000 3.3125000 0 1 1 285.06250,-437.59375 A 3.3125000 3.3125000 0 1 1 291.68750 -437.59375 z" opacity="1" transform="matrix(1.056604,0.000000,0.000000,1.056604,-24.19818,21.86331)"/><path fill="url(#linearGradient10620)" fill-opacity="1" stroke="none" stroke-dasharray="none" stroke-dashoffset="0" stroke-linecap="butt" stroke-linejoin="miter" stroke-miterlimit="2" stroke-opacity="1" stroke-width="1" d="M 291.68750 -437.59375 A 3.3125000 3.3125000 0 1 1 285.06250,-437.59375 A 3.3125000 3.3125000 0 1 1 291.68750 -437.59375 z" opacity="1" transform="matrix(1.056604,0.000000,0.000000,1.056604,-24.19818,21.86331)"/></g><rect width="20" height="9" x="271" y="-438" fill="#c4c5c2" fill-opacity="1" stroke="none" stroke-dasharray="none" stroke-dashoffset="0" stroke-linecap="butt" stroke-linejoin="miter" stroke-miterlimit="2" stroke-opacity="1" stroke-width="1" opacity="1"/><path fill="#c4c5c2" fill-opacity="1" stroke="none" stroke-dasharray="none" stroke-dashoffset="0" stroke-linecap="butt" stroke-linejoin="miter" stroke-miterlimit="2" stroke-opacity="1" stroke-width="1" d="M 291.68750 -437.59375 A 3.3125000 3.3125000 0 1 1 285.06250,-437.59375 A 3.3125000 3.3125000 0 1 1 291.68750 -437.59375 z" opacity="1" transform="matrix(0.905660,0.000000,0.000000,0.905660,9.830195,-35.68869)"/><g><path fill="#c4c5c2" fill-opacity="1" stroke="none" stroke-dasharray="none" stroke-dashoffset="0" stroke-linecap="butt" stroke-linejoin="miter" stroke-miterlimit="2" stroke-opacity="1" stroke-width="1" d="M 291.68750 -437.59375 A 3.3125000 3.3125000 0 1 1 285.06250,-437.59375 A 3.3125000 3.3125000 0 1 1 291.68750 -437.59375 z" opacity="1" transform="matrix(1.056604,0.000000,0.000000,1.056604,-17.19811,24.86321)"/><path fill="url(#linearGradient10622)" fill-opacity="1" stroke="none" stroke-dasharray="none" stroke-dashoffset="0" stroke-linecap="butt" stroke-linejoin="miter" stroke-miterlimit="2" stroke-opacity="1" stroke-width="1" d="M 291.68750 -437.59375 A 3.3125000 3.3125000 0 1 1 285.06250,-437.59375 A 3.3125000 3.3125000 0 1 1 291.68750 -437.59375 z" opacity="1" transform="matrix(1.056604,0.000000,0.000000,1.056604,-17.19818,24.86331)"/></g><g><path fill="#c4c5c2" fill-opacity="1" stroke="none" stroke-dasharray="none" stroke-dashoffset="0" stroke-linecap="butt" stroke-linejoin="miter" stroke-miterlimit="2" stroke-opacity="1" stroke-width="1" d="M 291.68750 -437.59375 A 3.3125000 3.3125000 0 1 1 285.06250,-437.59375 A 3.3125000 3.3125000 0 1 1 291.68750 -437.59375 z" opacity="1" transform="matrix(1.056604,0.000000,0.000000,1.056604,-31.19818,24.86331)"/><path fill="url(#linearGradient10624)" fill-opacity="1" stroke="none" stroke-dasharray="none" stroke-dashoffset="0" stroke-linecap="butt" stroke-linejoin="miter" stroke-miterlimit="2" stroke-opacity="1" stroke-width="1" d="M 291.68750 -437.59375 A 3.3125000 3.3125000 0 1 1 285.06250,-437.59375 A 3.3125000 3.3125000 0 1 1 291.68750 -437.59375 z" opacity="1" transform="matrix(1.056604,0.000000,0.000000,1.056604,-31.19818,24.86331)"/></g><g><path fill="#c4c5c2" fill-opacity="1" stroke="none" stroke-dasharray="none" stroke-dashoffset="0" stroke-linecap="butt" stroke-linejoin="miter" stroke-miterlimit="2" stroke-opacity="1" stroke-width="1" d="M 280.46875,-440.96875 C 276.88937,-440.96875 274.00000,-438.04812 274.00000,-434.46875 C 274.00000,-432.09807 275.34943,-430.13096 277.25000,-429.00000 L 283.71875,-429.00000 C 285.61932,-430.13096 286.96875,-432.12931 286.96875,-434.50000 C 286.96875,-438.07938 284.04812,-440.96875 280.46875,-440.96875 z" opacity="1" transform="translate(-1.000000,0.000000)"/><path fill="url(#linearGradient10626)" fill-opacity="1" stroke="none" stroke-dasharray="none" stroke-dashoffset="0" stroke-linecap="butt" stroke-linejoin="miter" stroke-miterlimit="2" stroke-opacity="1" stroke-width="1" d="M 280.50000,-441.00000 C 276.91200,-441.00000 274.00000,-438.08799 274.00000,-434.50000 C 274.00000,-432.12360 275.34485,-430.13368 277.25000,-429.00000 L 283.75000,-429.00000 C 285.65515,-430.13368 287.00000,-432.12360 287.00000,-434.50000 C 287.00000,-438.08800 284.08800,-440.99999 280.50000,-441.00000 z" opacity="1" transform="translate(-1.000000,0.000000)"/></g><path fill="url(#linearGradient10628)" fill-opacity="1" stroke="none" stroke-dasharray="none" stroke-dashoffset="0" stroke-linecap="butt" stroke-linejoin="miter" stroke-miterlimit="2" stroke-opacity="1" stroke-width="1" d="M 291.68750 -437.59375 A 3.3125000 3.3125000 0 1 1 285.06250,-437.59375 A 3.3125000 3.3125000 0 1 1 291.68750 -437.59375 z" opacity="1" transform="matrix(0.905660,0.000000,0.000000,0.905660,9.830296,-35.68884)"/><path fill="#888a85" fill-opacity="1" fill-rule="evenodd" stroke="none" stroke-linecap="butt" stroke-linejoin="miter" stroke-opacity="1" stroke-width="1" d="M 292.95640,-437.33396 C 292.95487,-434.64940 289.68714,-433.62001 289.68714,-433.62001 C 289.68714,-433.62001 292.03588,-435.24596 292.02399,-437.32502 C 292.02399,-437.32502 292.95640,-437.33396 292.95640,-437.33396 z"/><g><path fill="#c4c5c2" fill-opacity="1" stroke="none" stroke-dasharray="none" stroke-dashoffset="0" stroke-linecap="butt" stroke-linejoin="miter" stroke-miterlimit="2" stroke-opacity="1" stroke-width="1" d="M 291.68750 -437.59375 A 3.3125000 3.3125000 0 1 1 285.06250,-437.59375 A 3.3125000 3.3125000 0 1 1 291.68750 -437.59375 z" opacity="1" transform="matrix(1.142857,0.000000,0.000000,1.142857,-28.57139,67.00008) matrix(1.056604,0.000000,0.000000,1.056604,-31.19818,24.86331)"/><path fill="url(#linearGradient10630)" fill-opacity="1" stroke="none" stroke-dasharray="none" stroke-dashoffset="0" stroke-linecap="butt" stroke-linejoin="miter" stroke-miterlimit="2" stroke-opacity="1" stroke-width="1" d="M 291.68750 -437.59375 A 3.3125000 3.3125000 0 1 1 285.06250,-437.59375 A 3.3125000 3.3125000 0 1 1 291.68750 -437.59375 z" opacity="1" transform="matrix(1.142857,0.000000,0.000000,1.142857,-28.57139,67.00008) matrix(1.056604,0.000000,0.000000,1.056604,-31.19818,24.86331)"/></g></g></g><g><path fill="#fff" fill-opacity="1" stroke="#729fcf" stroke-dasharray="none" stroke-dashoffset="0" stroke-linecap="butt" stroke-linejoin="miter" stroke-miterlimit="0" stroke-opacity="1" stroke-width="1.459" d="M 31.819805 -316.77872 A 2.2097087 2.2097087 0 1 1 27.400387,-316.77872 A 2.2097087 2.2097087 0 1 1 31.819805 -316.77872 z" opacity="1" transform="translate(-163.0077,222.0147) matrix(0.685520,0.000000,0.000000,0.685520,151.7017,27.15827)"/><path fill="#fff" fill-opacity="1" stroke="#729fcf" stroke-dasharray="none" stroke-dashoffset="0" stroke-linecap="butt" stroke-linejoin="miter" stroke-miterlimit="0" stroke-opacity="1" stroke-width="1.092" d="M 31.819805 -316.77872 A 2.2097087 2.2097087 0 1 1 27.400387,-316.77872 A 2.2097087 2.2097087 0 1 1 31.819805 -316.77872 z" opacity="1" transform="translate(-163.0077,222.0147) matrix(0.915572,0.000000,0.000000,0.915587,152.4091,103.5577)"/><path fill="#fff" fill-opacity="1" stroke="#729fcf" stroke-dasharray="none" stroke-dashoffset="0" stroke-linecap="butt" stroke-linejoin="miter" stroke-miterlimit="0" stroke-opacity="1" stroke-width="1.475" d="M 31.819805 -316.77872 A 2.2097087 2.2097087 0 1 1 27.400387,-316.77872 A 2.2097087 2.2097087 0 1 1 31.819805 -316.77872 z" opacity="1" transform="translate(-163.0077,222.0147) matrix(0.672406,0.000000,0.000000,0.683742,153.0708,34.62149)"/><path fill="#fff" fill-opacity="1" stroke="#729fcf" stroke-dasharray="none" stroke-dashoffset="0" stroke-linecap="butt" stroke-linejoin="miter" stroke-miterlimit="0" stroke-opacity="1" stroke-width="1.468" d="M 31.819805 -316.77872 A 2.2097087 2.2097087 0 1 1 27.400387,-316.77872 A 2.2097087 2.2097087 0 1 1 31.819805 -316.77872 z" opacity="1" transform="translate(-163.0077,222.0147) matrix(0.682300,0.000000,0.000000,0.680269,181.7970,30.49471)"/><path fill="#fff" fill-opacity="1" stroke="#729fcf" stroke-dasharray="none" stroke-dashoffset="0" stroke-linecap="butt" stroke-linejoin="miter" stroke-miterlimit="0" stroke-opacity="1" stroke-width=".899" d="M 31.819805 -316.77872 A 2.2097087 2.2097087 0 1 1 27.400387,-316.77872 A 2.2097087 2.2097087 0 1 1 31.819805 -316.77872 z" opacity="1" transform="translate(-163.0077,222.0147) matrix(1.107132,0.000000,0.000000,1.117168,157.2177,164.9217)"/><path fill="#fff" fill-opacity="1" stroke="#729fcf" stroke-dasharray="none" stroke-dashoffset="0" stroke-linecap="butt" stroke-linejoin="miter" stroke-miterlimit="0" stroke-opacity="1" stroke-width=".918" d="M 31.819805 -316.77872 A 2.2097087 2.2097087 0 1 1 27.400387,-316.77872 A 2.2097087 2.2097087 0 1 1 31.819805 -316.77872 z" opacity="1" transform="translate(-163.0077,222.0147) matrix(1.127592,0.000000,0.000000,1.051830,161.6119,151.3731)"/><path fill="#fff" fill-opacity="1" stroke="#729fcf" stroke-dasharray="none" stroke-dashoffset="0" stroke-linecap="butt" stroke-linejoin="miter" stroke-miterlimit="0" stroke-opacity="1" stroke-width="1.464" d="M 31.819805 -316.77872 A 2.2097087 2.2097087 0 1 1 27.400387,-316.77872 A 2.2097087 2.2097087 0 1 1 31.819805 -316.77872 z" opacity="1" transform="translate(-163.0077,222.0147) matrix(0.685519,0.000000,0.000000,0.680487,164.6869,34.56369)"/></g></g></svg>