<svg xmlns="http://www.w3.org/2000/svg" xmlns:svg="http://www.w3.org/2000/svg" id="svg2" width="690.843" height="597.909" version="1.1"><metadata id="metadata7"/><g id="layer1" transform="translate(-9.1421334,-233.17919)"><path style="fill:#fff;fill-opacity:1;fill-rule:nonzero;stroke:#000;stroke-width:10;stroke-linecap:round;stroke-linejoin:miter;stroke-miterlimit:4;stroke-opacity:1;stroke-dasharray:none;stroke-dashoffset:0" id="path3620" d="m 181.82746,472.53461 c 0,148.39924 -52.46224,268.70059 -117.177695,268.70059 -64.71545463,0 -117.177696,-120.30135 -117.177696,-268.70059 0,-148.39924 52.46224137,-268.7006 117.177696,-268.7006 64.715455,0 117.177695,120.30136 117.177695,268.7006 z" transform="matrix(2.8726899,0,0,1.0798196,168.84482,21.881457)"/><g id="g3694" transform="translate(14.702487,2.8571428)"><path id="path2830" d="m 261.68027,406.82393 36.36549,359.61431 82.97781,0 38.24049,-359.61431" style="fill:none;stroke:#000;stroke-width:14.10000038;stroke-linecap:butt;stroke-linejoin:miter;stroke-miterlimit:4;stroke-opacity:1;stroke-dasharray:none"/><path id="path2826" d="m 442.4468,276.6803 c 0,49.09448 -41.15572,88.89342 -91.92388,88.89342 -50.76816,0 -91.92388,-39.79894 -91.92388,-88.89342 0,-49.09449 41.15572,-88.89343 91.92388,-88.89343 50.76816,0 91.92388,39.79894 91.92388,88.89343 z" transform="translate(-11.060917,113.98119)" style="fill:#fff;fill-opacity:1;fill-rule:nonzero;stroke:#000;stroke-width:17.61199951;stroke-linecap:butt;stroke-linejoin:miter;stroke-miterlimit:4;stroke-opacity:1;stroke-dasharray:none;stroke-dashoffset:0"/><path id="path3610" d="M 417.09557,336.26145 265.86811,447.10263" style="fill:none;stroke:#000;stroke-width:8.15200043;stroke-linecap:butt;stroke-linejoin:miter;stroke-miterlimit:4;stroke-opacity:1;stroke-dasharray:none"/><path id="path3610-1" d="M 370.02409,308.17608 244.86468,399.91085" style="fill:none;stroke:#000;stroke-width:8.15200043;stroke-linecap:butt;stroke-linejoin:miter;stroke-miterlimit:4;stroke-opacity:1;stroke-dasharray:none"/><path id="path3610-4" d="M 266.87874,335.24091 418.10619,446.08209" style="fill:none;stroke:#000;stroke-width:8.15200043;stroke-linecap:butt;stroke-linejoin:miter;stroke-miterlimit:4;stroke-opacity:1;stroke-dasharray:none"/><path id="path3610-4-9" d="M 306.03234,300.77574 436.914,396.7046" style="fill:none;stroke:#000;stroke-width:8.15200043;stroke-linecap:butt;stroke-linejoin:miter;stroke-miterlimit:4;stroke-opacity:1;stroke-dasharray:none"/><path id="path3610-4-8" d="m 246.61065,376.5921 132.66972,97.23942" style="fill:none;stroke:#000;stroke-width:8.15200043;stroke-linecap:butt;stroke-linejoin:miter;stroke-miterlimit:4;stroke-opacity:1;stroke-dasharray:none"/><path id="path3610-4-2" d="M 433.44049,380.0107 304.57747,474.46002" style="fill:none;stroke:#000;stroke-width:8.15200043;stroke-linecap:butt;stroke-linejoin:miter;stroke-miterlimit:4;stroke-opacity:1;stroke-dasharray:none"/></g></g></svg>