<svg xmlns="http://www.w3.org/2000/svg" xmlns:svg="http://www.w3.org/2000/svg" id="svg2" width="690.843" height="597.909" version="1.1"><metadata id="metadata7"/><g id="layer1" transform="translate(-9.1421334,-233.17919)"><path style="fill:#fff;fill-opacity:1;fill-rule:nonzero;stroke:#000;stroke-width:10;stroke-linecap:round;stroke-linejoin:miter;stroke-miterlimit:4;stroke-opacity:1;stroke-dasharray:none;stroke-dashoffset:0" id="path3620" d="m 181.82746,472.53461 c 0,148.39924 -52.46224,268.70059 -117.177695,268.70059 -64.71545463,0 -117.177696,-120.30135 -117.177696,-268.70059 0,-148.39924 52.46224137,-268.7006 117.177696,-268.7006 64.715455,0 117.177695,120.30136 117.177695,268.7006 z" transform="matrix(2.8726899,0,0,1.0798196,168.84482,21.881457)"/><path style="fill:none;stroke:#000;stroke-width:10;stroke-linecap:round;stroke-linejoin:miter;stroke-miterlimit:4;stroke-opacity:1;stroke-dasharray:none" id="path2816" d="m 355.87166,686.47203 0,-381.77521"/><path style="fill:#000;fill-opacity:1;stroke:#000;stroke-width:5;stroke-linejoin:miter;stroke-miterlimit:4;stroke-opacity:1;stroke-dasharray:none;stroke-dashoffset:0" id="path2818" d="m 365.67521,703.85956 c 0,46.30502 -36.18086,83.84266 -80.8122,83.84266 -44.63135,0 -80.81221,-37.53764 -80.81221,-83.84266 0,-46.30502 36.18086,-83.84266 80.81221,-83.84266 44.63134,0 80.8122,37.53764 80.8122,83.84266 z" transform="matrix(0.86662604,0,0,0.86662604,41.962127,84.107402)"/><path style="fill:#000;fill-opacity:1;fill-rule:nonzero;stroke:#000;stroke-width:3.49788642;stroke-linejoin:miter;stroke-miterlimit:4;stroke-opacity:1;stroke-dasharray:none;stroke-dashoffset:0" id="path3618" d="M 498.23775,478.96203 C 487.43102,436.20815 446.22124,431.4938 416.5823,423.48582 381.21648,411.5191 365.03425,382.76349 358.75673,339.52089 l -2.02761,-36.99987 c 12.76379,33.73415 40.64336,44.6109 67.22015,53.67478 46.38196,11.01541 67.31525,50.25786 74.72373,107.8334 0.48397,6.08567 0.99901,19.27869 0.75259,19.27869 -0.0715,0 -0.60616,-1.95564 -1.1881,-4.34586 l 0,0 2.6e-4,0 z"/><path style="fill:none;stroke:red;stroke-width:16;stroke-linecap:round;stroke-linejoin:miter;stroke-opacity:1;stroke-miterlimit:4;stroke-dasharray:none" id="path2817" d="m 176.92972,346.31704 369.5113,373.55192"/></g></svg>