<svg xmlns="http://www.w3.org/2000/svg" xmlns:cc="http://web.resource.org/cc/" xmlns:svg="http://www.w3.org/2000/svg" id="图层_1" width="13" height="14" version="1.0" viewBox="0 0 21.228 20.825" xml:space="preserve" style="overflow:visible;enable-background:new 0 0 21.228 20.825"><metadata id="metadata76"/><defs id="defs74"><linearGradient id="XMLID_5_" x1="2.597" x2="19.174" y1="2.193" y2="18.77" gradientTransform="matrix(1.749056,0,0,1.749987,1.149567,1.483541)" gradientUnits="userSpaceOnUse"><stop id="stop6" offset="0" style="stop-color:#f8db41"/><stop id="stop8" offset=".119" style="stop-color:#f8d73f"/><stop id="stop10" offset=".238" style="stop-color:#f9cb3a"/><stop id="stop12" offset=".358" style="stop-color:#fab731"/><stop id="stop14" offset=".477" style="stop-color:#fc9b24"/><stop id="stop16" offset=".595" style="stop-color:#fe7714"/><stop id="stop18" offset=".601" style="stop-color:#fe7513"/></linearGradient><linearGradient id="XMLID_6_" x1="7.633" x2="24.207" y1="-2.841" y2="13.733" gradientUnits="userSpaceOnUse"><stop id="stop23" offset="0" style="stop-color:#f8db41"/><stop id="stop25" offset=".119" style="stop-color:#f8d73f"/><stop id="stop27" offset=".238" style="stop-color:#f9cb3a"/><stop id="stop29" offset=".358" style="stop-color:#fab731"/><stop id="stop31" offset=".477" style="stop-color:#fc9b24"/><stop id="stop33" offset=".595" style="stop-color:#fe7714"/><stop id="stop35" offset=".601" style="stop-color:#fe7513"/></linearGradient><linearGradient id="XMLID_7_" x1="-2.529" x2="14.043" y1="7.324" y2="23.896" gradientUnits="userSpaceOnUse"><stop id="stop40" offset="0" style="stop-color:#f8db41"/><stop id="stop42" offset=".119" style="stop-color:#f8d73f"/><stop id="stop44" offset=".238" style="stop-color:#f9cb3a"/><stop id="stop46" offset=".358" style="stop-color:#fab731"/><stop id="stop48" offset=".477" style="stop-color:#fc9b24"/><stop id="stop50" offset=".595" style="stop-color:#fe7714"/><stop id="stop52" offset=".601" style="stop-color:#fe7513"/></linearGradient><linearGradient id="XMLID_8_" x1="2.789" x2="19.364" y1="2.004" y2="18.579" gradientUnits="userSpaceOnUse"><stop id="stop57" offset="0" style="stop-color:#f8db41"/><stop id="stop59" offset=".119" style="stop-color:#f8d73f"/><stop id="stop61" offset=".238" style="stop-color:#f9cb3a"/><stop id="stop63" offset=".358" style="stop-color:#fab731"/><stop id="stop65" offset=".477" style="stop-color:#fc9b24"/><stop id="stop67" offset=".595" style="stop-color:#fe7714"/><stop id="stop69" offset=".601" style="stop-color:#fe7513"/></linearGradient></defs><path id="path20" d="M 11.043976,12.916206 L 11.043976,9.4232323 L 19.388723,9.4232323 L 19.388723,16.573679 C 17.790085,17.616671 16.380346,18.330666 15.15076,18.708663 C 13.922922,19.084911 12.465959,19.272159 10.779869,19.272159 C 8.7054879,19.272159 7.0141507,18.934412 5.7076059,18.253667 C 4.399312,17.574672 3.3866086,16.564929 2.6677466,15.222689 C 1.9488846,13.880449 1.58683,12.336961 1.58683,10.599223 C 1.58683,8.7652372 1.9803676,7.172749 2.7674428,5.820009 C 3.5527689,4.4655191 4.7053968,3.4365268 6.2288246,2.7312819 C 7.4111865,2.190536 9.0045765,1.921038 11.008995,1.921038 C 12.939953,1.921038 14.386422,2.0890367 15.343156,2.4232842 C 16.301639,2.7610318 17.093961,3.2825279 17.728868,3.9860227 C 18.360278,4.6930174 18.834272,5.5890108 19.150851,6.6722527 L 13.938664,7.5629961 C 13.72353,6.9330008 13.361475,6.4465044 12.849002,6.1157569 C 12.33478,5.7815093 11.68588,5.6117606 10.890059,5.6117606 C 9.7111951,5.6117606 8.7632067,6.0072577 8.0653334,6.7965018 C 7.3622129,7.5839959 7.0071545,8.8352366 7.0071545,10.541474 C 7.0071545,12.35621 7.365711,13.654701 8.0740787,14.433445 C 8.7824464,15.212189 9.7776592,15.600686 11.043976,15.600686 C 11.647401,15.600686 12.224589,15.514937 12.770295,15.346938 C 13.321247,15.18069 13.943911,14.897192 14.652279,14.492945 L 14.652279,12.917956 L 11.043976,12.917956 L 11.043976,12.916206 z" style="fill:#000;stroke:#fff;stroke-width:1.30633846;stroke-miterlimit:4;stroke-dasharray:none;stroke-linejoin:round;stroke-linecap:butt;stroke-opacity:1;fill-opacity:1"/></svg>