<svg xmlns="http://www.w3.org/2000/svg" xmlns:svg="http://www.w3.org/2000/svg" id="svg2" width="27" height="29" version="1.0"><metadata id="metadata7"/><g id="layer1"><g id="g6334" transform="translate(1.0000001,0)"><path id="path2393" d="M 12.500248,9.499893 L 12.500248,28.500095" style="fill:none;fill-rule:evenodd;stroke:#3bb3ff;stroke-width:.99981093;stroke-linecap:round;stroke-linejoin:miter;stroke-miterlimit:4;stroke-dasharray:none;stroke-opacity:1"/><path id="path3171" d="M 8.8583691,34.085043 A 3.9141631,3.9141631 0 0 1 8.8583691,27.305513" transform="matrix(1.0216765,0,0,1.0324764,0.4493163,-22.692096)" style="fill:none;fill-opacity:0;stroke:#3bb3ff;stroke-width:.97365081;stroke-linecap:round;stroke-miterlimit:4;stroke-dasharray:none;stroke-opacity:1"/><path id="path3175" d="M 8.8583691,34.085043 A 3.9141631,3.9141631 0 0 1 8.8583691,27.305513" transform="matrix(1.6055152,0,0,1.6224868,-7.5798083,-40.80263)" style="fill:none;fill-opacity:0;stroke:#3bb3ff;stroke-width:.61958688;stroke-linecap:round;stroke-miterlimit:4;stroke-dasharray:none;stroke-opacity:1"/><path id="path3177" d="M 8.8583691,34.085043 A 3.9141631,3.9141631 0 0 1 8.8583691,27.305513" transform="matrix(2.4812855,0,0,2.5075146,-17.62358,-67.968804)" style="fill:none;fill-opacity:0;stroke:#3bb3ff;stroke-width:.40090355;stroke-linecap:round;stroke-miterlimit:4;stroke-dasharray:none;stroke-opacity:1"/><path id="path3179" d="M 8.8583691,34.085043 A 3.9141631,3.9141631 0 0 1 8.8583691,27.305513" transform="matrix(-1.0216765,0,0,1.0324764,24.550388,-22.692096)" style="fill:none;fill-opacity:0;stroke:#3bb3ff;stroke-width:.97365081;stroke-linecap:round;stroke-miterlimit:4;stroke-dasharray:none;stroke-opacity:1"/><path id="path3181" d="M 8.8583691,34.085043 A 3.9141631,3.9141631 0 0 1 8.8583691,27.305513" transform="matrix(-1.6055152,0,0,1.6224868,32.580246,-40.80263)" style="fill:none;fill-opacity:0;stroke:#3bb3ff;stroke-width:.61958688;stroke-linecap:round;stroke-miterlimit:4;stroke-dasharray:none;stroke-opacity:1"/><path id="path3183" d="M 8.8583691,34.085043 A 3.9141631,3.9141631 0 0 1 8.8583691,27.305513" transform="matrix(-2.4812855,0,0,2.5075146,42.623143,-67.968804)" style="fill:none;fill-opacity:0;stroke:#3bb3ff;stroke-width:.40090355;stroke-linecap:round;stroke-miterlimit:4;stroke-dasharray:none;stroke-opacity:1"/></g></g></svg>