<svg xmlns="http://www.w3.org/2000/svg" xmlns:svg="http://www.w3.org/2000/svg" xmlns:xlink="http://www.w3.org/1999/xlink" id="svg2588" width="744.094" height="1052.362" version="1.0"><metadata id="metadata28"/><defs id="defs2590"><linearGradient id="linearGradient3746"><stop id="stop3748" offset="0" style="stop-color:#fff;stop-opacity:1"/><stop id="stop3750" offset="1" style="stop-color:#0074b7;stop-opacity:1"/></linearGradient><radialGradient id="radialGradient3880" cx="82.966" cy="-178.425" r="526.795" fx="82.966" fy="-178.425" gradientTransform="matrix(1.4952094,0.3367191,-0.1040669,0.5264617,-208.61982,282.52272)" gradientUnits="userSpaceOnUse" xlink:href="#linearGradient3746"/><linearGradient id="linearGradient3624"><stop id="stop3626" offset="0" style="stop-color:#3a8daf;stop-opacity:1"/><stop id="stop3636" offset="1" style="stop-color:#252525;stop-opacity:1"/></linearGradient><linearGradient id="linearGradient3630" x1="552.985" x2="549.395" y1="390.568" y2="702.348" gradientTransform="matrix(2.3373776,0,0,1.5004634,-986.88716,-154.07447)" gradientUnits="userSpaceOnUse" xlink:href="#linearGradient3624"/><linearGradient id="linearGradient3816"><stop id="stop3818" offset="0" style="stop-color:#ad8b00;stop-opacity:1"/><stop id="stop3820" offset="1" style="stop-color:#ad8b00;stop-opacity:0"/></linearGradient><linearGradient id="linearGradient3826" x1="573" x2="573" y1="755.462" y2="700.135" gradientTransform="matrix(1,0,0,1.6033628,-151.5,-294.0167)" gradientUnits="userSpaceOnUse" xlink:href="#linearGradient3816"/><linearGradient id="linearGradient5097"><stop id="stop5099" offset="0" style="stop-color:#19a2db;stop-opacity:0"/><stop id="stop5109" offset=".3" style="stop-color:#1379a7;stop-opacity:.49803922"/><stop id="stop5101" offset="1" style="stop-color:#0e5173;stop-opacity:1"/></linearGradient><linearGradient id="linearGradient5103" x1="590.847" x2="590.847" y1="274.576" y2="334.014" gradientTransform="translate(-151.5,156.75229)" gradientUnits="userSpaceOnUse" spreadMethod="pad" xlink:href="#linearGradient5097"/></defs><g id="layer1"><rect id="rect3638" width="1053.589" height="291.328" x="-151.795" y="158.385" style="opacity:1;fill:url(#radialGradient3880);fill-opacity:1;fill-rule:nonzero;stroke:none;stroke-width:4.1880002;stroke-linecap:round;stroke-linejoin:round;stroke-miterlimit:4;stroke-dasharray:none;stroke-opacity:1"/><rect id="rect3622" width="1054.471" height="461.53" x="-152.235" y="435.101" style="opacity:1;fill:url(#linearGradient3630);fill-opacity:1;fill-rule:nonzero;stroke:none;stroke-width:4.13464069;stroke-linecap:round;stroke-linejoin:round;stroke-miterlimit:4;stroke-dasharray:none;stroke-opacity:1"/><path id="path3814" d="M -152.5,869.5896 C 120.5,855.15934 -202.86309,732.0556 109.5,862.15934 C 172.96247,888.59238 243.5,863.7627 297.5,862.15934 C 351.5,860.55598 311.5,847.48872 358.5,868.33244 C 405.5,889.17615 553.5,849.14252 598.5,841.12571 C 643.5,833.1089 756.5,824.50553 795.5,838.9358 C 834.5,853.36606 904.5,855.74589 904.5,855.74589 L 901.5,903.84677 L -154.5,902.24341 L -152.5,869.5896 z" style="fill:url(#linearGradient3826);fill-opacity:1;fill-rule:evenodd;stroke:none;stroke-width:1px;stroke-linecap:butt;stroke-linejoin:miter;stroke-opacity:1"/><path id="path3828" d="M 902.20121,891.3446 C 632.01828,885.30439 756.73005,848.09724 614.20403,891.30439 C 596.58819,896.64468 408.23621,877.36748 400.43291,891.30439 C 376.86263,933.40172 75.265447,858.10952 34.250926,881.93531 C 31.281885,883.66006 12.514878,878.65564 -12.264082,885.67419 C -48.555335,895.95355 -64.717178,880.4469 -103.31472,886.48711 C -141.91229,892.52732 -145.87102,888.50052 -145.87102,888.50052 L -152.79879,902.75389 L 892.3044,902.08275 L 902.20121,891.3446 z" style="fill:#ad8b00;fill-opacity:1;fill-rule:evenodd;stroke:none;stroke-width:1px;stroke-linecap:butt;stroke-linejoin:miter;stroke-opacity:1"/></g></svg>