<svg xmlns="http://www.w3.org/2000/svg" xmlns:svg="http://www.w3.org/2000/svg" xmlns:xlink="http://www.w3.org/1999/xlink" id="svg2588" width="744.094" height="1052.362" version="1.0"><metadata id="metadata28"/><defs id="defs2590"><linearGradient id="linearGradient3746"><stop id="stop3748" offset="0" style="stop-color:#fff;stop-opacity:1"/><stop id="stop3750" offset="1" style="stop-color:#0074b7;stop-opacity:1"/></linearGradient><radialGradient id="radialGradient3880" cx="82.966" cy="-178.425" r="526.795" fx="82.966" fy="-178.425" gradientTransform="matrix(1.4952094,0.2388475,-0.1040669,0.3734391,-208.61982,418.216)" gradientUnits="userSpaceOnUse" xlink:href="#linearGradient3746"/><linearGradient id="linearGradient3624"><stop id="stop3626" offset="0" style="stop-color:#3a8daf;stop-opacity:1"/><stop id="stop3636" offset="1" style="stop-color:#252525;stop-opacity:1"/></linearGradient><linearGradient id="linearGradient3630" x1="552.985" x2="549.395" y1="390.568" y2="702.348" gradientTransform="matrix(2.3373776,0,0,1.186038,-986.88716,67.776416)" gradientUnits="userSpaceOnUse" xlink:href="#linearGradient3624"/><linearGradient id="linearGradient3816"><stop id="stop3818" offset="0" style="stop-color:#ad8b00;stop-opacity:1"/><stop id="stop3820" offset="1" style="stop-color:#ad8b00;stop-opacity:0"/></linearGradient><linearGradient id="linearGradient3826" x1="573" x2="573" y1="755.462" y2="700.135" gradientTransform="matrix(1,0,0,1.2561681,-151.5,-34.518664)" gradientUnits="userSpaceOnUse" xlink:href="#linearGradient3816"/><linearGradient id="linearGradient5097"><stop id="stop5099" offset="0" style="stop-color:#19a2db;stop-opacity:0"/><stop id="stop5109" offset=".3" style="stop-color:#1379a7;stop-opacity:.49803922"/><stop id="stop5101" offset="1" style="stop-color:#0e5173;stop-opacity:1"/></linearGradient><linearGradient id="linearGradient5103" x1="590.847" x2="590.847" y1="274.576" y2="334.014" gradientTransform="translate(-151.5,156.75229)" gradientUnits="userSpaceOnUse" spreadMethod="pad" xlink:href="#linearGradient5097"/></defs><g id="layer1"><rect id="rect3638" width="1053.589" height="206.65" x="-151.795" y="330.16" style="opacity:1;fill:url(#radialGradient3880);fill-opacity:1;fill-rule:nonzero;stroke:none;stroke-width:4.1880002;stroke-linecap:round;stroke-linejoin:round;stroke-miterlimit:4;stroke-dasharray:none;stroke-opacity:1"/><rect id="rect3622" width="1054.471" height="364.815" x="-152.235" y="533.489" style="opacity:1;fill:url(#linearGradient3630);fill-opacity:1;fill-rule:nonzero;stroke:none;stroke-width:4.13464069;stroke-linecap:round;stroke-linejoin:round;stroke-miterlimit:4;stroke-dasharray:none;stroke-opacity:1"/><path id="path3814" d="M -152.5,877.11847 C 120.5,865.81296 -202.86309,769.3663 109.5,871.29717 C 172.96247,892.00636 243.5,872.55334 297.5,871.29717 C 351.5,870.041 311.5,859.80335 358.5,876.13354 C 405.5,892.46372 553.5,861.09903 598.5,854.8182 C 643.5,848.53736 756.5,841.79698 795.5,853.10249 C 834.5,864.408 904.5,866.2725 904.5,866.2725 L 901.5,903.95754 L -154.5,902.70137 L -152.5,877.11847 z" style="fill:url(#linearGradient3826);fill-opacity:1;fill-rule:evenodd;stroke:none;stroke-width:1px;stroke-linecap:butt;stroke-linejoin:miter;stroke-opacity:1"/><path id="path3828" d="M 902.20121,894.16261 C 632.01828,889.43035 756.73005,860.2801 614.20403,894.1311 C 596.58819,898.315 408.23621,883.21212 400.43291,894.1311 C 376.86263,927.11261 75.265447,868.1243 34.250926,886.79082 C 31.281885,888.14209 12.514878,884.22134 -12.264082,889.72008 C -48.555335,897.77353 -64.717178,885.62471 -103.31472,890.35697 C -141.91229,895.08922 -145.87102,891.93439 -145.87102,891.93439 L -152.79879,903.10131 L 892.3044,902.5755 L 902.20121,894.16261 z" style="fill:#ad8b00;fill-opacity:1;fill-rule:evenodd;stroke:none;stroke-width:1px;stroke-linecap:butt;stroke-linejoin:miter;stroke-opacity:1"/></g></svg>