<svg xmlns="http://www.w3.org/2000/svg" xmlns:svg="http://www.w3.org/2000/svg" xmlns:xlink="http://www.w3.org/1999/xlink" id="svg3121" width="744.094" height="1052.362" version="1.0"><defs id="defs3123"><radialGradient id="radialGradient3439" cx="-135.625" cy="148.719" r="7.625" fx="-135.625" fy="148.719" gradientUnits="userSpaceOnUse" xlink:href="#linearGradient3366"/><linearGradient id="linearGradient3418" x1="-132.851" x2="-145.366" y1="173.697" y2="177.598" gradientTransform="matrix(-0.2134297,-0.5943658,0.6658882,-0.2391126,-274.53441,123.00067)" gradientUnits="userSpaceOnUse" xlink:href="#linearGradient3366"/><linearGradient id="linearGradient3414" x1="-141.855" x2="-144.95" y1="181.492" y2="175.902" gradientTransform="matrix(0.2134297,-0.5943658,-0.6658882,-0.2391126,-15.893355,122.67824)" gradientUnits="userSpaceOnUse" xlink:href="#linearGradient3366"/><linearGradient id="linearGradient3410" x1="-149.5" x2="-145.793" y1="177.594" y2="180.059" gradientTransform="matrix(-0.6315243,0,0,0.7075182,-227.03781,54.321514)" gradientUnits="userSpaceOnUse" xlink:href="#linearGradient3366"/><linearGradient id="linearGradient3406" x1="-140.462" x2="-147.048" y1="177.405" y2="172.665" gradientTransform="matrix(-0.6315243,0,0,-0.7075182,-226.40365,274.91611)" gradientUnits="userSpaceOnUse" xlink:href="#linearGradient3366"/><linearGradient id="linearGradient3402" x1="-147.241" x2="-140.019" y1="180.956" y2="175.578" gradientTransform="matrix(0.6315243,0,0,-0.7075182,-64.045217,275.07466)" gradientUnits="userSpaceOnUse" xlink:href="#linearGradient3366"/><linearGradient id="linearGradient3398" x1="-146.99" x2="-142.603" y1="174.009" y2="179.387" gradientTransform="matrix(0.6315243,0,0,0.7075182,-62.683611,54.187362)" gradientUnits="userSpaceOnUse" xlink:href="#linearGradient3366"/><linearGradient id="linearGradient3366"><stop id="stop3368" offset="0" style="stop-color:#bcbcbc;stop-opacity:1"/><stop id="stop3370" offset="1" style="stop-color:#191b1c;stop-opacity:1"/></linearGradient><radialGradient id="radialGradient3364" cx="-208.95" cy="173.106" r="31.667" fx="-208.95" fy="173.106" gradientUnits="userSpaceOnUse" xlink:href="#linearGradient3366"/></defs><g id="layer1"><g id="mine" transform="translate(419.4996,488.13454)"><path id="path2586" d="M -167.5843,186.54079 A 31.466251,31.466251 0 1 1 -230.5168,186.54079 A 31.466251,31.466251 0 1 1 -167.5843,186.54079 z" transform="matrix(0.6341613,0,0,0.6341613,-18.521242,45.718192)" style="opacity:1;fill:url(#radialGradient3364);fill-opacity:1;stroke:#131313;stroke-width:3.54799318;stroke-linecap:round;stroke-linejoin:round;stroke-miterlimit:4;stroke-dasharray:none;stroke-opacity:1"/><path id="path3382" d="M -155.20193,175.4167 C -157.60085,176.6451 -156.78074,184.26068 -156.78074,184.26068 C -156.78074,184.26068 -148.33787,181.58301 -148.57092,178.60053 C -148.74283,176.40051 -153.23774,174.41092 -155.20193,175.4167 z" style="fill:url(#linearGradient3398);fill-opacity:1;fill-rule:evenodd;stroke:#131313;stroke-width:2.25;stroke-linecap:butt;stroke-linejoin:miter;stroke-miterlimit:4;stroke-dasharray:none;stroke-opacity:1"/><path id="path3400" d="M -156.56354,153.84532 C -158.96246,152.61693 -158.14235,145.00135 -158.14235,145.00135 C -158.14235,145.00135 -149.69948,147.67902 -149.93253,150.66149 C -150.10444,152.86151 -154.59935,154.85111 -156.56354,153.84532 z" style="fill:url(#linearGradient3402);fill-opacity:1;fill-rule:evenodd;stroke:#131313;stroke-width:2.25;stroke-linecap:butt;stroke-linejoin:miter;stroke-miterlimit:4;stroke-dasharray:none;stroke-opacity:1"/><path id="path3404" d="M -133.88532,153.68678 C -131.48641,152.45838 -132.30652,144.8428 -132.30652,144.8428 C -132.30652,144.8428 -140.74938,147.52047 -140.51633,150.50295 C -140.34442,152.70297 -135.84951,154.69256 -133.88532,153.68678 z" style="fill:url(#linearGradient3406);fill-opacity:1;fill-rule:evenodd;stroke:#131313;stroke-width:2.25;stroke-linecap:butt;stroke-linejoin:miter;stroke-miterlimit:4;stroke-dasharray:none;stroke-opacity:1"/><path id="path3408" d="M -134.51948,175.55085 C -132.12057,176.77925 -132.94068,184.39483 -132.94068,184.39483 C -132.94068,184.39483 -141.38355,181.71716 -141.15049,178.73469 C -140.97858,176.53467 -136.48367,174.54507 -134.51948,175.55085 z" style="fill:url(#linearGradient3410);fill-opacity:1;fill-rule:evenodd;stroke:#131313;stroke-width:2.25;stroke-linecap:butt;stroke-linejoin:miter;stroke-miterlimit:4;stroke-dasharray:none;stroke-opacity:1"/><path id="path3412" d="M -161.25709,168.78221 C -163.22395,170.62484 -170.11427,165.85236 -170.11427,165.85236 C -170.11427,165.85236 -164.7408,160.23808 -162.01257,161.46538 C -160.00011,162.37068 -159.64667,167.27352 -161.25709,168.78221 z" style="fill:url(#linearGradient3414);fill-opacity:1;fill-rule:evenodd;stroke:#131313;stroke-width:2.25;stroke-linecap:butt;stroke-linejoin:miter;stroke-miterlimit:4;stroke-dasharray:none;stroke-opacity:1"/><path id="path3416" d="M -129.17068,169.10464 C -127.20382,170.94727 -120.3135,166.17478 -120.3135,166.17478 C -120.3135,166.17478 -125.68697,160.5605 -128.41519,161.7878 C -130.42766,162.69311 -130.7811,167.59595 -129.17068,169.10464 z" style="fill:url(#linearGradient3418);fill-opacity:1;fill-rule:evenodd;stroke:#131313;stroke-width:2.25;stroke-linecap:butt;stroke-linejoin:miter;stroke-miterlimit:4;stroke-dasharray:none;stroke-opacity:1"/><path id="path3426" d="M -126,151.21948 A 6.625,6.625 0 1 1 -139.25,151.21948 A 6.625,6.625 0 1 1 -126,151.21948 z" transform="matrix(0.6341613,0,0,0.6341613,-61.039517,68.324922)" style="opacity:1;fill:url(#radialGradient3439);fill-opacity:1;stroke:#131313;stroke-width:3.54799318;stroke-linecap:round;stroke-linejoin:round;stroke-miterlimit:4;stroke-dasharray:none;stroke-opacity:1"/></g></g></svg>