<svg xmlns="http://www.w3.org/2000/svg" xmlns:svg="http://www.w3.org/2000/svg" xmlns:xlink="http://www.w3.org/1999/xlink" id="svg2" width="1052.362" height="744.094" version="1.0"><defs id="defs4"><radialGradient id="radialGradient3439" cx="-135.625" cy="148.719" r="7.625" fx="-135.625" fy="148.719" gradientUnits="userSpaceOnUse" xlink:href="#linearGradient3366"/><linearGradient id="linearGradient3418" x1="-132.851" x2="-145.366" y1="173.697" y2="177.598" gradientTransform="matrix(-0.2134297,-0.5943658,0.6658882,-0.2391126,-274.53441,123.00067)" gradientUnits="userSpaceOnUse" xlink:href="#linearGradient3366"/><linearGradient id="linearGradient3414" x1="-141.855" x2="-144.95" y1="181.492" y2="175.902" gradientTransform="matrix(0.2134297,-0.5943658,-0.6658882,-0.2391126,-15.893355,122.67824)" gradientUnits="userSpaceOnUse" xlink:href="#linearGradient3366"/><linearGradient id="linearGradient3410" x1="-149.5" x2="-145.793" y1="177.594" y2="180.059" gradientTransform="matrix(-0.6315243,0,0,0.7075182,-227.03781,54.321514)" gradientUnits="userSpaceOnUse" xlink:href="#linearGradient3366"/><linearGradient id="linearGradient3406" x1="-140.462" x2="-147.048" y1="177.405" y2="172.665" gradientTransform="matrix(-0.6315243,0,0,-0.7075182,-226.40365,274.91611)" gradientUnits="userSpaceOnUse" xlink:href="#linearGradient3366"/><linearGradient id="linearGradient3402" x1="-147.241" x2="-140.019" y1="180.956" y2="175.578" gradientTransform="matrix(0.6315243,0,0,-0.7075182,-64.045217,275.07466)" gradientUnits="userSpaceOnUse" xlink:href="#linearGradient3366"/><linearGradient id="linearGradient3398" x1="-146.99" x2="-142.603" y1="174.009" y2="179.387" gradientTransform="matrix(0.6315243,0,0,0.7075182,-62.683611,54.187362)" gradientUnits="userSpaceOnUse" xlink:href="#linearGradient3366"/><linearGradient id="linearGradient3366"><stop id="stop3368" offset="0" style="stop-color:#bcbcbc;stop-opacity:1"/><stop id="stop3370" offset="1" style="stop-color:#191b1c;stop-opacity:1"/></linearGradient><radialGradient id="radialGradient3364" cx="-208.95" cy="173.106" r="31.667" fx="-208.95" fy="173.106" gradientUnits="userSpaceOnUse" xlink:href="#linearGradient3366"/><linearGradient id="linearGradient5097"><stop style="stop-color:#19a2db;stop-opacity:0" id="stop5099" offset="0"/><stop id="stop5109" offset=".3" style="stop-color:#1379a7;stop-opacity:.49803922"/><stop style="stop-color:#0e5173;stop-opacity:1" id="stop5101" offset="1"/></linearGradient><linearGradient id="linearGradient3523"><stop id="stop3525" offset="0" style="stop-color:#b9b9b9;stop-opacity:1"/><stop id="stop3527" offset="1" style="stop-color:#444;stop-opacity:0"/></linearGradient><linearGradient id="linearGradient3438"><stop style="stop-color:#939393;stop-opacity:1" id="stop3440" offset="0"/><stop id="stop3444" offset=".124" style="stop-color:#d6d6d6;stop-opacity:1"/><stop style="stop-color:#dadada;stop-opacity:1" id="stop3446" offset=".741"/><stop style="stop-color:#fff;stop-opacity:1" id="stop3442" offset="1"/></linearGradient><linearGradient id="linearGradient3428"><stop id="stop3430" offset="0" style="stop-color:#464646;stop-opacity:1"/><stop style="stop-color:#848788;stop-opacity:1" id="stop3432" offset=".183"/><stop id="stop3434" offset=".664" style="stop-color:#9ca0a2;stop-opacity:1"/><stop id="stop3436" offset="1" style="stop-color:#b5babd;stop-opacity:1"/></linearGradient><linearGradient id="linearGradient4034"><stop id="stop4036" offset="0" style="stop-color:#fff;stop-opacity:1"/><stop style="stop-color:#fff;stop-opacity:.49803922" id="stop4038" offset=".5"/><stop id="stop4040" offset=".637" style="stop-color:#fff;stop-opacity:.24705882"/><stop style="stop-color:#fff;stop-opacity:.12156863" id="stop4042" offset=".794"/><stop id="stop4044" offset="1" style="stop-color:#a0a0a0;stop-opacity:1"/></linearGradient><linearGradient id="linearGradient4016"><stop style="stop-color:#283e6a;stop-opacity:1" id="stop4018" offset="0"/><stop style="stop-color:#283e6a;stop-opacity:0" id="stop4020" offset="1"/></linearGradient><linearGradient id="linearGradient4004"><stop style="stop-color:#dbdbdb;stop-opacity:1" id="stop4010" offset="0"/><stop style="stop-color:#c4c9cb;stop-opacity:1" id="stop4012" offset="1"/></linearGradient><linearGradient id="linearGradient3998"><stop id="stop4000" offset="0" style="stop-color:#adadad;stop-opacity:1"/><stop id="stop4002" offset="1" style="stop-color:#fff;stop-opacity:1"/></linearGradient><linearGradient id="linearGradient3864"><stop style="stop-color:#fff;stop-opacity:1" id="stop3866" offset="0"/><stop id="stop4028" offset=".5" style="stop-color:#fff;stop-opacity:.49803922"/><stop style="stop-color:#fff;stop-opacity:.24705882" id="stop4030" offset=".75"/><stop id="stop4032" offset=".875" style="stop-color:#fff;stop-opacity:.12156863"/><stop style="stop-color:#a0a0a0;stop-opacity:1" id="stop3868" offset="1"/></linearGradient><linearGradient id="linearGradient3816"><stop style="stop-color:#ad8b00;stop-opacity:1" id="stop3818" offset="0"/><stop style="stop-color:#ad8b00;stop-opacity:0" id="stop3820" offset="1"/></linearGradient><linearGradient id="linearGradient3746"><stop style="stop-color:#fff;stop-opacity:1" id="stop3748" offset="0"/><stop style="stop-color:#0074b7;stop-opacity:1" id="stop3750" offset="1"/></linearGradient><linearGradient id="linearGradient3718"><stop style="stop-color:#bcbcbc;stop-opacity:.28169015" id="stop3720" offset="0"/><stop style="stop-color:#bcbcbc;stop-opacity:0" id="stop3722" offset="1"/></linearGradient><linearGradient id="linearGradient3708"><stop style="stop-color:#202020;stop-opacity:1" id="stop3710" offset="0"/><stop style="stop-color:#fff;stop-opacity:1" id="stop3712" offset="1"/></linearGradient><linearGradient id="linearGradient3692"><stop style="stop-color:#fff;stop-opacity:1" id="stop3694" offset="0"/><stop style="stop-color:#b6b6b6;stop-opacity:1" id="stop3696" offset="1"/></linearGradient><linearGradient id="linearGradient3656"><stop style="stop-color:#fff;stop-opacity:1" id="stop3658" offset="0"/><stop style="stop-color:#fff;stop-opacity:0" id="stop3660" offset="1"/></linearGradient><linearGradient id="linearGradient3624"><stop style="stop-color:#3a8daf;stop-opacity:1" id="stop3626" offset="0"/><stop id="stop3636" offset="1" style="stop-color:#252525;stop-opacity:1"/></linearGradient><linearGradient id="linearGradient3532"><stop id="stop3534" offset="0" style="stop-color:#545454;stop-opacity:1"/><stop style="stop-color:#848788;stop-opacity:1" id="stop3536" offset=".44"/><stop id="stop3538" offset=".568" style="stop-color:#9ca0a2;stop-opacity:1"/><stop id="stop3540" offset="1" style="stop-color:#565d60;stop-opacity:1"/></linearGradient><linearGradient id="linearGradient3345"><stop id="stop3348" offset="0" style="stop-color:#898989;stop-opacity:1"/><stop style="stop-color:#9ea1a2;stop-opacity:1" id="stop3350" offset=".44"/><stop id="stop3352" offset=".568" style="stop-color:#bbbdbf;stop-opacity:1"/><stop id="stop3354" offset="1" style="stop-color:#f0f1f2;stop-opacity:1"/></linearGradient><linearGradient id="linearGradient3227"><stop style="stop-color:#444;stop-opacity:1" id="stop3229" offset="0"/><stop style="stop-color:#b0b0b0;stop-opacity:1" id="stop3232" offset="1"/></linearGradient><linearGradient id="linearGradient3435"><stop style="stop-color:#fff;stop-opacity:1" id="stop3437" offset="0"/><stop style="stop-color:silver;stop-opacity:0" id="stop3439" offset="1"/></linearGradient><linearGradient id="linearGradient3421"><stop style="stop-color:#444;stop-opacity:1" id="stop3423" offset="0"/><stop style="stop-color:#444;stop-opacity:0" id="stop3425" offset="1"/></linearGradient><linearGradient id="linearGradient3293"><stop style="stop-color:#c4b434;stop-opacity:1" id="stop3295" offset="0"/><stop style="stop-color:#9b5500;stop-opacity:1" id="stop3297" offset="1"/></linearGradient><linearGradient id="linearGradient3229"><stop style="stop-color:#125a7a;stop-opacity:1" id="stop3231" offset="0"/><stop style="stop-color:#308fc0;stop-opacity:1" id="stop3233" offset="1"/></linearGradient><linearGradient id="linearGradient3219"><stop id="stop3221" offset="0" style="stop-color:#a55b00;stop-opacity:1"/><stop id="stop3223" offset="1" style="stop-color:#f4e45e;stop-opacity:1"/></linearGradient><linearGradient id="linearGradient3189"><stop style="stop-color:#000;stop-opacity:1" id="stop3191" offset="0"/><stop style="stop-color:#000;stop-opacity:0" id="stop3193" offset="1"/></linearGradient><linearGradient id="linearGradient3167"><stop style="stop-color:#464646;stop-opacity:1" id="stop3169" offset="0"/><stop id="stop3345" offset=".44" style="stop-color:#848788;stop-opacity:1"/><stop style="stop-color:#9ca0a2;stop-opacity:1" id="stop3347" offset=".568"/><stop style="stop-color:#b5babd;stop-opacity:1" id="stop3171" offset="1"/></linearGradient><linearGradient id="linearGradient3175" x1="443.956" x2="443.956" y1="315.319" y2="247.856" gradientTransform="matrix(0.4908502,0,0,0.4579593,350.98557,542.12189)" gradientUnits="userSpaceOnUse" xlink:href="#linearGradient3167"/><linearGradient id="linearGradient3253" x1="325.572" x2="312.844" y1="280.136" y2="257.6" gradientUnits="userSpaceOnUse" xlink:href="#linearGradient3219"/><linearGradient id="linearGradient3255" x1="310.016" x2="325.926" y1="255.479" y2="280.136" gradientUnits="userSpaceOnUse" xlink:href="#linearGradient3229"/><linearGradient id="linearGradient3321" x1="325.572" x2="312.844" y1="280.136" y2="257.6" gradientUnits="userSpaceOnUse" xlink:href="#linearGradient3219"/><linearGradient id="linearGradient3323" x1="310.016" x2="325.926" y1="255.479" y2="280.136" gradientUnits="userSpaceOnUse" xlink:href="#linearGradient3229"/><linearGradient id="linearGradient3331" x1="325.572" x2="312.844" y1="280.136" y2="257.6" gradientUnits="userSpaceOnUse" xlink:href="#linearGradient3219"/><linearGradient id="linearGradient3333" x1="310.016" x2="325.926" y1="255.479" y2="280.136" gradientUnits="userSpaceOnUse" xlink:href="#linearGradient3229"/><linearGradient id="linearGradient3343" x1="359.559" x2="370.882" y1="258.842" y2="258.842" gradientTransform="matrix(1.3292883,0,0,1.10796,1.5038593,-24.232315)" gradientUnits="userSpaceOnUse" xlink:href="#linearGradient3293"/><linearGradient id="linearGradient3365" x1="325.572" x2="312.844" y1="280.136" y2="257.6" gradientUnits="userSpaceOnUse" xlink:href="#linearGradient3219"/><linearGradient id="linearGradient3367" x1="310.016" x2="325.926" y1="255.479" y2="280.136" gradientUnits="userSpaceOnUse" xlink:href="#linearGradient3229"/><linearGradient id="linearGradient3369" x1="325.572" x2="312.844" y1="280.136" y2="257.6" gradientUnits="userSpaceOnUse" xlink:href="#linearGradient3219"/><linearGradient id="linearGradient3371" x1="310.016" x2="325.926" y1="255.479" y2="280.136" gradientUnits="userSpaceOnUse" xlink:href="#linearGradient3229"/><linearGradient id="linearGradient3379" x1="325.572" x2="312.844" y1="280.136" y2="257.6" gradientUnits="userSpaceOnUse" xlink:href="#linearGradient3219"/><linearGradient id="linearGradient3381" x1="310.016" x2="325.926" y1="255.479" y2="280.136" gradientUnits="userSpaceOnUse" xlink:href="#linearGradient3229"/><linearGradient id="linearGradient3385" x1="371.799" x2="364.496" y1="258.842" y2="258.842" gradientTransform="matrix(1.3267302,0,0,1.1332782,-1.5786343,-29.194748)" gradientUnits="userSpaceOnUse" xlink:href="#linearGradient3293"/><linearGradient id="linearGradient3401" x1="371.799" x2="364.496" y1="258.842" y2="258.842" gradientTransform="matrix(1.9807835,0,0,1.1280701,-361.45126,-28.553769)" gradientUnits="userSpaceOnUse" xlink:href="#linearGradient3293"/><radialGradient id="radialGradient3431" cx="432.334" cy="233.803" r="59.057" fx="432.334" fy="233.803" gradientTransform="matrix(1.1862613,0,0,0.3638703,-186.86143,179.02055)" gradientUnits="userSpaceOnUse" xlink:href="#linearGradient3421"/><radialGradient id="radialGradient3441" cx="290.5" cy="244.344" r="37.5" fx="290.5" fy="244.344" gradientTransform="matrix(0.8202102,0.8202102,-0.7960458,0.7960458,246.73838,-189.686)" gradientUnits="userSpaceOnUse" xlink:href="#linearGradient3435"/><linearGradient id="linearGradient3311" x1="510.999" x2="396.489" y1="161.994" y2="161.994" gradientTransform="matrix(0.466978,0,0,0.4500435,352.00841,540.25044)" gradientUnits="userSpaceOnUse" xlink:href="#linearGradient3345"/><radialGradient id="radialGradient3339" cx="432.334" cy="233.803" r="59.057" fx="432.334" fy="233.803" gradientTransform="matrix(0.4181493,0,0,0.1282619,386.09461,620.15777)" gradientUnits="userSpaceOnUse" xlink:href="#linearGradient3421"/><linearGradient id="linearGradient3434" x1="325.572" x2="312.844" y1="280.136" y2="257.6" gradientUnits="userSpaceOnUse" xlink:href="#linearGradient3219"/><linearGradient id="linearGradient3436" x1="310.016" x2="325.926" y1="255.479" y2="280.136" gradientUnits="userSpaceOnUse" xlink:href="#linearGradient3229"/><linearGradient id="linearGradient3520" x1="525" x2="525" y1="371.094" y2="395.094" gradientTransform="matrix(0.5865192,0,0,0.2518015,339.73218,572.99479)" gradientUnits="userSpaceOnUse" xlink:href="#linearGradient3532"/><linearGradient id="linearGradient3630" x1="552.985" x2="549.395" y1="390.568" y2="702.348" gradientTransform="matrix(2.3373776,0,0,1.5004634,-835.38716,-310.82676)" gradientUnits="userSpaceOnUse" xlink:href="#linearGradient3624"/><radialGradient id="radialGradient3662" cx="656.195" cy="534.459" r="13.228" fx="656.195" fy="534.459" gradientTransform="matrix(1,0,0,1.2672781,0,-144.63884)" gradientUnits="userSpaceOnUse" xlink:href="#linearGradient3656"/><radialGradient id="radialGradient3668" cx="656.195" cy="534.459" r="13.228" fx="656.195" fy="534.459" gradientTransform="matrix(1,0,0,1.2672781,0,-144.63884)" gradientUnits="userSpaceOnUse" xlink:href="#linearGradient3656"/><radialGradient id="radialGradient3672" cx="656.195" cy="534.459" r="13.228" fx="656.195" fy="534.459" gradientTransform="matrix(1,0,0,1.2672781,0,-144.63884)" gradientUnits="userSpaceOnUse" xlink:href="#linearGradient3656"/><radialGradient id="radialGradient3676" cx="656.195" cy="534.459" r="13.228" fx="656.195" fy="534.459" gradientTransform="matrix(1,0,0,1.2672781,0,-144.63884)" gradientUnits="userSpaceOnUse" xlink:href="#linearGradient3656"/><linearGradient id="linearGradient3772" x1="506.96" x2="525.416" y1="469.737" y2="469.737" gradientUnits="userSpaceOnUse" xlink:href="#linearGradient3692"/><linearGradient id="linearGradient3774" x1="516.895" x2="516.895" y1="503.501" y2="543.806" gradientTransform="matrix(0.9947644,0,0,1.3346457,2.7877039,-166.60153)" gradientUnits="userSpaceOnUse" xlink:href="#linearGradient3718"/><linearGradient id="linearGradient3776" x1="518.27" x2="533.029" y1="497.315" y2="497.315" gradientUnits="userSpaceOnUse" xlink:href="#linearGradient3708"/><linearGradient id="linearGradient3790" x1="506.96" x2="525.416" y1="469.737" y2="469.737" gradientUnits="userSpaceOnUse" xlink:href="#linearGradient3692"/><linearGradient id="linearGradient3792" x1="516.895" x2="516.895" y1="503.501" y2="543.806" gradientTransform="matrix(0.9947644,0,0,1.3346457,2.7877039,-166.60153)" gradientUnits="userSpaceOnUse" xlink:href="#linearGradient3718"/><linearGradient id="linearGradient3794" x1="518.27" x2="533.029" y1="497.315" y2="497.315" gradientUnits="userSpaceOnUse" xlink:href="#linearGradient3708"/><radialGradient id="radialGradient3804" cx="656.195" cy="534.459" r="13.228" fx="656.195" fy="534.459" gradientTransform="matrix(1,0,0,1.2672781,0,-144.63884)" gradientUnits="userSpaceOnUse" xlink:href="#linearGradient3656"/><radialGradient id="radialGradient3808" cx="656.195" cy="534.459" r="13.228" fx="656.195" fy="534.459" gradientTransform="matrix(1,0,0,1.2672781,0,-144.63884)" gradientUnits="userSpaceOnUse" xlink:href="#linearGradient3656"/><linearGradient id="linearGradient3812" x1="543.5" x2="587.52" y1="205.193" y2="205.193" gradientTransform="matrix(1.1223608,0,0,0.3849769,-17.516054,565.40983)" gradientUnits="userSpaceOnUse" xlink:href="#linearGradient3227"/><linearGradient id="linearGradient3826" x1="573" x2="573" y1="755.462" y2="700.135" gradientTransform="matrix(1,0,0,1.6033628,0,-450.76899)" gradientUnits="userSpaceOnUse" xlink:href="#linearGradient3816"/><radialGradient id="radialGradient3874" cx="94.274" cy="89.893" r="74.398" fx="94.274" fy="89.893" gradientTransform="matrix(2.9674693,0.8647541,-0.8726553,1.0212484,-15.308759,-74.232772)" gradientUnits="userSpaceOnUse" xlink:href="#linearGradient3864"/><radialGradient id="radialGradient3880" cx="82.966" cy="-178.425" r="526.795" fx="82.966" fy="-178.425" gradientTransform="matrix(1.4952094,0.3367191,-0.1040669,0.5264617,-57.119818,125.77043)" gradientUnits="userSpaceOnUse" xlink:href="#linearGradient3746"/><linearGradient id="linearGradient3948" x1="660.293" x2="444.793" y1="256.533" y2="255.621" gradientTransform="translate(0,32.526912)" gradientUnits="userSpaceOnUse" xlink:href="#linearGradient3438"/><linearGradient id="linearGradient3972" x1="573.5" x2="578.25" y1="244.206" y2="216.956" gradientTransform="translate(0,35.526912)" gradientUnits="userSpaceOnUse" xlink:href="#linearGradient3692"/><linearGradient id="linearGradient3990" x1="542.5" x2="559" y1="222.594" y2="222.594" gradientTransform="translate(-6.25,37.151912)" gradientUnits="userSpaceOnUse" xlink:href="#linearGradient3746"/><linearGradient id="linearGradient3994" x1="542.5" x2="559" y1="222.594" y2="222.594" gradientTransform="translate(38.5,37.151912)" gradientUnits="userSpaceOnUse" xlink:href="#linearGradient3746"/><linearGradient id="linearGradient4022" x1="639" x2="667" y1="262.094" y2="262.094" gradientUnits="userSpaceOnUse" xlink:href="#linearGradient4016"/><linearGradient id="linearGradient3387" x1="542.5" x2="559" y1="222.594" y2="222.594" gradientTransform="translate(15.875,37.151912)" gradientUnits="userSpaceOnUse" xlink:href="#linearGradient3746"/><linearGradient id="linearGradient3416" x1="474.231" x2="474.194" y1="229.923" y2="218.274" gradientTransform="translate(0.1004684,32.526757)" gradientUnits="userSpaceOnUse" xlink:href="#linearGradient3167"/><linearGradient id="linearGradient3426" x1="592.928" x2="557.057" y1="199.437" y2="196.545" gradientTransform="translate(12.140805,-13.041887)" gradientUnits="userSpaceOnUse" xlink:href="#linearGradient3428"/><filter id="filter3507"><feGaussianBlur id="feGaussianBlur3509" stdDeviation="3.052"/></filter><linearGradient id="linearGradient3521" x1="562.556" x2="562.556" y1="285.899" y2="244.094" gradientTransform="matrix(1,0,0,-0.7291751,0,521.83983)" gradientUnits="userSpaceOnUse" xlink:href="#linearGradient3523"/><linearGradient id="linearGradient5103" x1="590.847" x2="590.847" y1="274.576" y2="334.014" gradientUnits="userSpaceOnUse" spreadMethod="pad" xlink:href="#linearGradient5097"/><radialGradient id="radialGradient5107" cx="94.274" cy="89.893" r="74.398" fx="94.274" fy="89.893" gradientTransform="matrix(2.9674693,0.8647541,-0.8726553,1.0212484,-15.308759,-74.232772)" gradientUnits="userSpaceOnUse" xlink:href="#linearGradient3864"/></defs><metadata id="metadata7"/><g id="layer1"><rect style="opacity:1;fill:url(#radialGradient3880);fill-opacity:1;fill-rule:nonzero;stroke:none;stroke-width:4.1880002;stroke-linecap:round;stroke-linejoin:round;stroke-miterlimit:4;stroke-dasharray:none;stroke-opacity:1" id="rect3638" width="1053.589" height="291.328" x="-.295" y="1.632"/><path style="fill:url(#radialGradient3874);fill-opacity:1;fill-rule:evenodd;stroke:none;stroke-width:1px;stroke-linecap:butt;stroke-linejoin:miter;stroke-opacity:1;filter:url(#filter3507)" id="path3872" d="M 158.37853,75.817898 C 130.95894,49.483192 82.14552,74.615971 85.85382,95.15981 C 49.691853,94.8009 50.214842,139.36083 83.29101,132.16343 C 144.66465,163.16454 159.26268,129.80212 164.6863,136.51386 C 225.60448,157.97672 246.34362,130.65438 265.24417,127.0714 C 294.43981,137.91859 337.16986,121.78798 297.03636,102.77604 C 331.73096,64.597047 277.96882,60.229366 253.07028,70.400868 C 191.09597,33.610112 168.89234,63.292037 158.37853,75.817898 z" transform="matrix(1.5062893,0,0,1.1720951,618.04001,132.36768)"/><rect style="opacity:1;fill:url(#linearGradient3630);fill-opacity:1;fill-rule:nonzero;stroke:none;stroke-width:4.13464069;stroke-linecap:round;stroke-linejoin:round;stroke-miterlimit:4;stroke-dasharray:none;stroke-opacity:1" id="rect3622" width="1054.471" height="461.53" x="-.735" y="278.349"/><path style="fill:url(#linearGradient3826);fill-opacity:1;fill-rule:evenodd;stroke:none;stroke-width:1px;stroke-linecap:butt;stroke-linejoin:miter;stroke-opacity:1" id="path3814" d="M -0.99999999,712.83731 C 272,698.40705 -51.363087,575.30331 261,705.40705 C 324.46247,731.84009 395,707.01041 449,705.40705 C 503,703.80369 463,690.73643 510,711.58015 C 557,732.42386 705,692.39023 750,684.37342 C 795,676.35661 908,667.75324 947,682.18351 C 986,696.61377 1056,698.9936 1056,698.9936 L 1053,747.09448 L -3,745.49112 L -0.99999999,712.83731 z"/><rect style="opacity:1;fill:url(#linearGradient3520);fill-opacity:1;fill-rule:nonzero;stroke:#1b1e1f;stroke-width:.56879884;stroke-linecap:round;stroke-linejoin:round;stroke-miterlimit:4;stroke-dasharray:none;stroke-opacity:1" id="rect3512" width="10.557" height="6.043" x="642.376" y="666.437"/><use id="use3258" width="1052.362" height="744.094" x="0" y="0" transform="matrix(0.869168,0,0,-0.869168,81.98751,1246.5374)" xlink:href="#path2455"/><path style="fill:url(#linearGradient3812);fill-opacity:1;fill-rule:evenodd;stroke:#000;stroke-width:1.77744257;stroke-linecap:butt;stroke-linejoin:miter;stroke-miterlimit:4;stroke-dasharray:none;stroke-opacity:1" id="path2455" d="M 593.04822,651.68104 C 593.04822,651.68104 653.65569,615.49321 639.065,637.05192 C 624.47431,658.61061 624.47431,658.61061 624.47431,658.61061 L 593.04822,651.68104 z"/><path style="fill:url(#linearGradient3175);fill-opacity:1;fill-rule:evenodd;stroke:#393939;stroke-width:1.90693891;stroke-linecap:butt;stroke-linejoin:miter;stroke-miterlimit:4;stroke-dasharray:none;stroke-opacity:1" id="path2385" d="M 485.26939,643.71814 C 443.15507,651.66437 458.5319,680.53556 502.21486,686.27814 C 551.68229,692.78115 568.45042,691.0115 605.34827,686.27814 C 657.60843,679.57406 657.68143,651.78445 605.34827,643.25553 C 553.98131,634.88408 516.10913,637.89923 485.26939,643.71814 z"/><path style="fill:url(#radialGradient3339);fill-opacity:1;fill-rule:evenodd;stroke:none;stroke-width:1px;stroke-linecap:butt;stroke-linejoin:miter;stroke-opacity:1" id="path3403" d="M 542.18031,648.1112 C 548.56327,665.42741 608.42397,656.72745 586.93551,642.57104 C 586.93551,642.57104 543.33293,648.61096 542.18031,648.1112 z"/><path style="fill:url(#linearGradient3311);fill-opacity:1;fill-rule:evenodd;stroke:#2d2d2d;stroke-width:2.07042313;stroke-linecap:butt;stroke-linejoin:miter;stroke-miterlimit:4;stroke-dasharray:none;stroke-opacity:1" id="path3291" d="M 537.39402,641.90906 C 537.39402,656.7605 583.62247,656.30589 583.62247,641.45445 L 583.62247,636.06071 C 583.62247,621.21003 537.39402,613.87461 537.39402,628.72529 L 537.39402,641.90906 z"/><path style="opacity:1;fill:url(#radialGradient3441);fill-opacity:1;fill-rule:nonzero;stroke:none;stroke-width:2.227;stroke-linecap:round;stroke-linejoin:round;stroke-miterlimit:4;stroke-dasharray:none;stroke-opacity:1" id="path3433" d="M 341,263.09448 A 37.5,40 0 1 1 266,263.09448 A 37.5,40 0 1 1 341,263.09448 z" transform="matrix(0.692163,0,1.4106583e-2,0.289185,275.31394,582.37251)"/><path style="opacity:1;fill:#444;fill-opacity:1;fill-rule:nonzero;stroke:none;stroke-width:2.06500006;stroke-linecap:round;stroke-linejoin:round;stroke-miterlimit:4;stroke-dasharray:none;stroke-opacity:1" id="path3458" d="M 397,316.09448 A 27.5,7 0 1 1 342,316.09448 A 27.5,7 0 1 1 397,316.09448 z" transform="matrix(0.5642633,0,0,0.5642633,348.03095,450.47113)"/><path style="opacity:1;fill:#444;fill-opacity:1;fill-rule:nonzero;stroke:#1b1e1f;stroke-width:4.23126984;stroke-linecap:round;stroke-linejoin:round;stroke-miterlimit:4;stroke-dasharray:none;stroke-opacity:1" id="path3510" d="M 397,316.09448 A 27.5,7 0 1 1 342,316.09448 A 27.5,7 0 1 1 397,316.09448 z" transform="matrix(0,0.30778,-0.5642633,0,828.66499,563.5944)"/><use id="use3544" width="1052.362" height="744.094" x="0" y="0" transform="translate(0.5000005,-17.23511)" xlink:href="#path3510"/><path style="opacity:1;fill:#787878;fill-opacity:1;fill-rule:nonzero;stroke:#1b1e1f;stroke-width:2.38492584;stroke-linecap:round;stroke-linejoin:round;stroke-miterlimit:4;stroke-dasharray:none;stroke-opacity:1" id="path3584" d="M 246,366.09448 A 8.5,8 0 1 1 229,366.09448 A 8.5,8 0 1 1 246,366.09448 z" transform="matrix(1.7798114,-4.2997512e-2,1.3318941e-2,0.5513151,196.65666,476.1443)"/><path style="fill:#a9a9a9;fill-opacity:1;fill-rule:nonzero;stroke:#484848;stroke-width:3.4975698;stroke-linecap:round;stroke-linejoin:round;stroke-miterlimit:4;stroke-opacity:1" id="path3469" d="M 423.2231,281.1169 C 502.67948,283.47026 574.8361,283.42778 668.97714,281.1169 C 668.97714,281.1169 670.77663,271.99598 668.97714,269.5402 C 559.46065,250.8302 423.2231,265.08614 423.2231,269.5402 L 423.2231,281.1169 z"/><rect style="opacity:1;fill:#333;fill-opacity:1;fill-rule:nonzero;stroke:none;stroke-width:2;stroke-linecap:round;stroke-linejoin:round;stroke-miterlimit:4;stroke-dasharray:none;stroke-opacity:1" id="rect3408" width="3.428" height="29.611" x="709.891" y="-14.463" transform="matrix(0.9327494,0.3605254,-0.3633626,0.9316478,0,0)"/><rect style="opacity:1;fill:url(#linearGradient3416);fill-opacity:1;fill-rule:nonzero;stroke:#484848;stroke-width:2.99999928;stroke-linecap:round;stroke-linejoin:round;stroke-miterlimit:4;stroke-dasharray:none;stroke-opacity:1" id="rect3376" width="48.5" height="8.5" x="444.563" y="252.392" transform="matrix(0.9999952,3.0887776e-3,-3.0887776e-3,0.9999952,0,0)"/><path style="fill:url(#linearGradient3972);fill-opacity:1;fill-rule:evenodd;stroke:#323232;stroke-width:3;stroke-linecap:butt;stroke-linejoin:miter;stroke-miterlimit:4;stroke-dasharray:none;stroke-opacity:1" id="path3952" d="M 509,277.62139 C 509,277.62139 547.41409,235.70896 524,232.62139 L 615,244.62139 L 615,279.62139 L 509,277.62139 z"/><path style="opacity:1;fill:url(#radialGradient3662);fill-opacity:1;fill-rule:nonzero;stroke:#41526b;stroke-width:2.9000001;stroke-linecap:round;stroke-linejoin:round;stroke-miterlimit:4;stroke-dasharray:none;stroke-opacity:1" id="path3654" d="M 668.92299,541.15485 A 12.727922,16.263456 0 1 1 643.46715,541.15485 A 12.727922,16.263456 0 1 1 668.92299,541.15485 z" transform="matrix(0.5187874,0,0,0.3968421,374.8524,387.30025)"/><path style="opacity:1;fill:url(#radialGradient3668);fill-opacity:1;fill-rule:nonzero;stroke:#41526b;stroke-width:2.9000001;stroke-linecap:round;stroke-linejoin:round;stroke-miterlimit:4;stroke-dasharray:none;stroke-opacity:1" id="path3666" d="M 668.92299,541.15485 A 12.727922,16.263456 0 1 1 643.46715,541.15485 A 12.727922,16.263456 0 1 1 668.92299,541.15485 z" transform="matrix(0.5734968,0,0,0.4386917,316.52295,315.62837)"/><path id="path3670" d="M 668.92299,541.15485 A 12.727922,16.263456 0 1 1 643.46715,541.15485 A 12.727922,16.263456 0 1 1 668.92299,541.15485 z" transform="matrix(0.8598866,0,0,0.5637407,192.52282,220.77351)" style="opacity:1;fill:url(#radialGradient3672);fill-opacity:1;fill-rule:nonzero;stroke:none;stroke-width:2.9000001000000002;stroke-linecap:round;stroke-linejoin:round;stroke-miterlimit:4;stroke-dasharray:none;stroke-opacity:1"/><path style="opacity:1;fill:url(#radialGradient3676);fill-opacity:1;fill-rule:nonzero;stroke:none;stroke-width:2.9000001000000002;stroke-linecap:round;stroke-linejoin:round;stroke-miterlimit:4;stroke-dasharray:none;stroke-opacity:1" id="path3674" d="M 668.92299,541.15485 A 12.727922,16.263456 0 1 1 643.46715,541.15485 A 12.727922,16.263456 0 1 1 668.92299,541.15485 z" transform="matrix(0.7435991,0,0,0.6264519,225.8301,127.83701)"/><g id="g3759" transform="matrix(0.8830571,0,0,0.8830571,104.83144,103.2985)"><path id="path3682" d="M 523.9661,469.73706 A 7.7781744,34.648232 0 1 1 508.40975,469.73706 A 7.7781744,34.648232 0 1 1 523.9661,469.73706 z" style="opacity:1;fill:url(#linearGradient3772);fill-opacity:1;fill-rule:nonzero;stroke:#272727;stroke-width:2.9000001;stroke-linecap:round;stroke-linejoin:round;stroke-miterlimit:4;stroke-dasharray:none;stroke-opacity:1"/><g id="g3754"><rect style="opacity:1;fill:url(#linearGradient3774);fill-opacity:1;fill-rule:nonzero;stroke:none;stroke-width:2.20000005;stroke-linecap:round;stroke-linejoin:round;stroke-miterlimit:4;stroke-dasharray:none;stroke-opacity:1" id="rect3716" width="33.588" height="59.927" x="498.864" y="497.845"/><path style="fill:url(#linearGradient3776);fill-opacity:1;fill-rule:evenodd;stroke:#1f1f1f;stroke-width:1.99788344;stroke-linecap:butt;stroke-linejoin:miter;stroke-miterlimit:4;stroke-dasharray:none;stroke-opacity:1" id="path3704" d="M 523.35045,482.89424 C 523.35045,482.89424 532.31256,488.20203 532.02344,500.14638 C 531.73431,512.09072 531.73431,511.73417 531.73431,511.73417 C 531.73431,511.73417 520.70627,493.83104 519.26887,499.77636 L 523.35045,482.89424 z"/><path id="path3706" d="M 508.50327,482.89424 C 508.50327,482.89424 499.54116,488.20203 499.83028,500.14638 C 500.11941,512.09072 500.11941,511.73417 500.11941,511.73417 C 500.11941,511.73417 511.14745,493.83104 512.58485,499.77636 L 508.50327,482.89424 z" style="fill:#bcbcbc;fill-opacity:1;fill-rule:evenodd;stroke:#1f1f1f;stroke-width:1.99788344;stroke-linecap:butt;stroke-linejoin:miter;stroke-miterlimit:4;stroke-dasharray:none;stroke-opacity:1"/></g></g><g id="g3778" transform="matrix(0.8830571,0,0,0.8830571,192.45885,-66.370546)"><path style="opacity:1;fill:url(#linearGradient3790);fill-opacity:1;fill-rule:nonzero;stroke:#272727;stroke-width:2.9000001;stroke-linecap:round;stroke-linejoin:round;stroke-miterlimit:4;stroke-dasharray:none;stroke-opacity:1" id="path3780" d="M 523.9661,469.73706 A 7.7781744,34.648232 0 1 1 508.40975,469.73706 A 7.7781744,34.648232 0 1 1 523.9661,469.73706 z"/><g id="g3782"><rect id="rect3784" width="33.588" height="59.927" x="498.864" y="497.845" style="opacity:1;fill:url(#linearGradient3792);fill-opacity:1;fill-rule:nonzero;stroke:none;stroke-width:2.20000005;stroke-linecap:round;stroke-linejoin:round;stroke-miterlimit:4;stroke-dasharray:none;stroke-opacity:1"/><path id="path3786" d="M 523.35045,482.89424 C 523.35045,482.89424 532.31256,488.20203 532.02344,500.14638 C 531.73431,512.09072 531.73431,511.73417 531.73431,511.73417 C 531.73431,511.73417 520.70627,493.83104 519.26887,499.77636 L 523.35045,482.89424 z" style="fill:url(#linearGradient3794);fill-opacity:1;fill-rule:evenodd;stroke:#1f1f1f;stroke-width:1.99788344;stroke-linecap:butt;stroke-linejoin:miter;stroke-miterlimit:4;stroke-dasharray:none;stroke-opacity:1"/><path style="fill:#bcbcbc;fill-opacity:1;fill-rule:evenodd;stroke:#1f1f1f;stroke-width:1.99788344;stroke-linecap:butt;stroke-linejoin:miter;stroke-miterlimit:4;stroke-dasharray:none;stroke-opacity:1" id="path3788" d="M 508.50327,482.89424 C 508.50327,482.89424 499.54116,488.20203 499.83028,500.14638 C 500.11941,512.09072 500.11941,511.73417 500.11941,511.73417 C 500.11941,511.73417 511.14745,493.83104 512.58485,499.77636 L 508.50327,482.89424 z"/></g></g><path id="path3802" d="M 668.92299,541.15485 A 12.727922,16.263456 0 1 1 643.46715,541.15485 A 12.727922,16.263456 0 1 1 668.92299,541.15485 z" transform="matrix(0.4292897,0,0,0.3283816,384.32775,481.20689)" style="opacity:1;fill:url(#radialGradient3804);fill-opacity:1;fill-rule:nonzero;stroke:#41526b;stroke-width:2.9000001;stroke-linecap:round;stroke-linejoin:round;stroke-miterlimit:4;stroke-dasharray:none;stroke-opacity:1"/><path style="opacity:1;fill:url(#radialGradient3808);fill-opacity:1;fill-rule:nonzero;stroke:#41526b;stroke-width:2.9000001;stroke-linecap:round;stroke-linejoin:round;stroke-miterlimit:4;stroke-dasharray:none;stroke-opacity:1" id="path3806" d="M 668.92299,541.15485 A 12.727922,16.263456 0 1 1 643.46715,541.15485 A 12.727922,16.263456 0 1 1 668.92299,541.15485 z" transform="matrix(0.5842998,0,0,0.4469553,299.7804,369.91514)"/><path style="fill:#ad8b00;fill-opacity:1;fill-rule:evenodd;stroke:none;stroke-width:1px;stroke-linecap:butt;stroke-linejoin:miter;stroke-opacity:1" id="path3828" d="M 1059.5,736.57373 C 786.5,730.53352 912.51207,693.32637 768.5,736.53352 C 750.7005,741.87381 560.38464,722.59661 552.5,736.53352 C 528.68395,778.63085 223.94216,703.33865 182.5,727.16444 C 179.5,728.88919 160.53732,723.88477 135.5,730.90332 C 98.830356,741.18268 82.5,725.67603 43.5,731.71624 C 4.5,737.75645 0.5,733.72965 0.5,733.72965 L -6.5,747.98302 L 1049.5,747.31188 L 1059.5,736.57373 z"/><rect style="opacity:1;fill:url(#linearGradient5103);fill-opacity:1;fill-rule:nonzero;stroke:none;stroke-width:3;stroke-linecap:round;stroke-linejoin:round;stroke-miterlimit:4;stroke-dasharray:none;stroke-opacity:1" id="rect3448" width="1053.589" height="67.882" x="-.295" y="274.576"/><path id="path3519" d="M 428,343.85222 C 428,343.85222 457.01739,315.41439 470,315.41439 C 481.98261,313.04457 634.13054,311.73511 652,317.41962 C 661.13441,320.56943 664.46012,324.9477 666,343.85222 C 600.25603,336.72647 497.8192,336.4719 428,343.85222 z" style="opacity:.43933058;fill:url(#linearGradient3521);fill-opacity:1;fill-rule:evenodd;stroke:none;stroke-width:3.0999999;stroke-linecap:butt;stroke-linejoin:miter;stroke-miterlimit:4;stroke-dasharray:none;stroke-opacity:1"/><path style="fill:url(#linearGradient3948);fill-opacity:1;fill-rule:evenodd;stroke:#545454;stroke-width:3.0999999;stroke-linecap:butt;stroke-linejoin:miter;stroke-miterlimit:4;stroke-dasharray:none;stroke-opacity:1" id="path3938" d="M 428,276.62139 C 428,276.62139 457.01739,315.62139 470,315.62139 C 481.98261,318.87139 634.13054,320.6672 652,312.87139 C 661.13441,308.55171 664.46012,302.54729 666,276.62139 C 600.25603,286.39373 497.8192,286.74286 428,276.62139 z"/><path style="fill:#dedede;fill-opacity:1;fill-rule:nonzero;stroke:#484848;stroke-width:3;stroke-linecap:round;stroke-linejoin:round;stroke-miterlimit:4;stroke-opacity:1" id="rect3378" d="M 466.00273,263.08289 L 484.25264,263.13926 L 494.7163,274.92164 L 465.96644,274.83284 L 466.00273,263.08289 z"/><rect style="opacity:1;fill:url(#linearGradient3990);fill-opacity:1;fill-rule:nonzero;stroke:#323232;stroke-width:3;stroke-linecap:round;stroke-linejoin:round;stroke-miterlimit:4;stroke-dasharray:none;stroke-opacity:1" id="rect3974" width="13.5" height="17" x="537.75" y="251.246"/><rect id="rect3992" width="13.5" height="17" x="582.5" y="251.246" style="opacity:1;fill:url(#linearGradient3994);fill-opacity:1;fill-rule:nonzero;stroke:#323232;stroke-width:3;stroke-linecap:round;stroke-linejoin:round;stroke-miterlimit:4;stroke-dasharray:none;stroke-opacity:1"/><path style="fill:#dedede;fill-opacity:1;fill-rule:nonzero;stroke:#484848;stroke-width:3;stroke-linecap:round;stroke-linejoin:round;stroke-miterlimit:4;stroke-opacity:1" id="rect2558" d="M 422.25,268.87139 C 487.33333,277.37139 573.16667,279.87139 668.5,268.87139 C 668.5,268.87139 670.30312,275.56827 668.5,277.37139 C 558.76249,291.1089 422.25,280.64171 422.25,277.37139 L 422.25,268.87139 z"/><rect style="opacity:1;fill:#c1c1c1;fill-opacity:1;fill-rule:nonzero;stroke:#404040;stroke-width:3.0365274;stroke-linecap:round;stroke-linejoin:round;stroke-miterlimit:4;stroke-dasharray:none;stroke-opacity:1" id="rect2569" width="94.428" height="7.237" x="546.398" y="177.106" transform="matrix(0.9947793,0.1020501,-0.1079723,0.9941539,0,0)"/><rect id="rect3385" width="13.5" height="17" x="559.875" y="251.246" style="opacity:1;fill:url(#linearGradient3387);fill-opacity:1;fill-rule:nonzero;stroke:#323232;stroke-width:3;stroke-linecap:round;stroke-linejoin:round;stroke-miterlimit:4;stroke-dasharray:none;stroke-opacity:1"/><g id="g3401" transform="matrix(0.9246214,0.3808874,-0.3808874,0.9246214,113.30125,-193.16902)"><rect style="opacity:1;fill:#b20000;fill-opacity:1;fill-rule:nonzero;stroke:none;stroke-width:1;stroke-linecap:round;stroke-linejoin:round;stroke-miterlimit:4;stroke-dasharray:none;stroke-opacity:1" id="rect3389" width="19.75" height="27.75" x="193.344" y="-709" transform="matrix(0,1,-1,0,0,0)"/><rect id="rect3393" width="27.25" height="5.75" x="681.5" y="200.594" style="opacity:1;fill:#fff;fill-opacity:1;fill-rule:nonzero;stroke:none;stroke-width:3;stroke-linecap:round;stroke-linejoin:round;stroke-miterlimit:4;stroke-dasharray:none;stroke-opacity:1"/><rect id="rect3395" width="5.75" height="19.5" x="691.25" y="193.594" style="opacity:1;fill:#fff;fill-opacity:1;fill-rule:nonzero;stroke:none;stroke-width:3;stroke-linecap:round;stroke-linejoin:round;stroke-miterlimit:4;stroke-dasharray:none;stroke-opacity:1"/><rect id="rect3397" width="27.75" height="2.5" x="681.5" y="202.344" style="opacity:1;fill:navy;fill-opacity:1;fill-rule:nonzero;stroke:none;stroke-width:3;stroke-linecap:round;stroke-linejoin:round;stroke-miterlimit:4;stroke-dasharray:none;stroke-opacity:1"/><rect id="rect3399" width="3" height="19.25" x="692.5" y="193.594" style="opacity:1;fill:navy;fill-opacity:1;fill-rule:nonzero;stroke:none;stroke-width:3;stroke-linecap:round;stroke-linejoin:round;stroke-miterlimit:4;stroke-dasharray:none;stroke-opacity:1"/></g><path style="fill:#dcdcdc;fill-opacity:1;fill-rule:nonzero;stroke:#404040;stroke-width:3.03650045;stroke-linecap:round;stroke-linejoin:round;stroke-miterlimit:4;stroke-opacity:1" id="rect3466" d="M 529.42326,227.17914 L 616.35817,235.81552 L 618.07681,241.50986 L 524.14191,231.87348 L 529.42326,227.17914 z"/><rect style="opacity:1;fill:url(#linearGradient3426);fill-opacity:1;fill-rule:nonzero;stroke:#494949;stroke-width:3;stroke-linecap:round;stroke-linejoin:round;stroke-miterlimit:4;stroke-dasharray:none;stroke-opacity:1" id="rect3418" width="34.5" height="14.5" x="571.141" y="174.803" transform="matrix(0.997157,7.5351915e-2,-7.5351915e-2,0.997157,0,0)"/><g id="mine" transform="translate(971.11461,237.62715)"><path id="path2586" d="M -167.5843,186.54079 A 31.466251,31.466251 0 1 1 -230.5168,186.54079 A 31.466251,31.466251 0 1 1 -167.5843,186.54079 z" transform="matrix(0.6341613,0,0,0.6341613,-18.521242,45.718192)" style="opacity:1;fill:url(#radialGradient3364);fill-opacity:1;stroke:#131313;stroke-width:3.54799318;stroke-linecap:round;stroke-linejoin:round;stroke-miterlimit:4;stroke-dasharray:none;stroke-opacity:1"/><path id="path3382" d="M -155.20193,175.4167 C -157.60085,176.6451 -156.78074,184.26068 -156.78074,184.26068 C -156.78074,184.26068 -148.33787,181.58301 -148.57092,178.60053 C -148.74283,176.40051 -153.23774,174.41092 -155.20193,175.4167 z" style="fill:url(#linearGradient3398);fill-opacity:1;fill-rule:evenodd;stroke:#131313;stroke-width:2.25;stroke-linecap:butt;stroke-linejoin:miter;stroke-miterlimit:4;stroke-dasharray:none;stroke-opacity:1"/><path id="path3400" d="M -156.56354,153.84532 C -158.96246,152.61693 -158.14235,145.00135 -158.14235,145.00135 C -158.14235,145.00135 -149.69948,147.67902 -149.93253,150.66149 C -150.10444,152.86151 -154.59935,154.85111 -156.56354,153.84532 z" style="fill:url(#linearGradient3402);fill-opacity:1;fill-rule:evenodd;stroke:#131313;stroke-width:2.25;stroke-linecap:butt;stroke-linejoin:miter;stroke-miterlimit:4;stroke-dasharray:none;stroke-opacity:1"/><path id="path3404" d="M -133.88532,153.68678 C -131.48641,152.45838 -132.30652,144.8428 -132.30652,144.8428 C -132.30652,144.8428 -140.74938,147.52047 -140.51633,150.50295 C -140.34442,152.70297 -135.84951,154.69256 -133.88532,153.68678 z" style="fill:url(#linearGradient3406);fill-opacity:1;fill-rule:evenodd;stroke:#131313;stroke-width:2.25;stroke-linecap:butt;stroke-linejoin:miter;stroke-miterlimit:4;stroke-dasharray:none;stroke-opacity:1"/><path id="path3408" d="M -134.51948,175.55085 C -132.12057,176.77925 -132.94068,184.39483 -132.94068,184.39483 C -132.94068,184.39483 -141.38355,181.71716 -141.15049,178.73469 C -140.97858,176.53467 -136.48367,174.54507 -134.51948,175.55085 z" style="fill:url(#linearGradient3410);fill-opacity:1;fill-rule:evenodd;stroke:#131313;stroke-width:2.25;stroke-linecap:butt;stroke-linejoin:miter;stroke-miterlimit:4;stroke-dasharray:none;stroke-opacity:1"/><path id="path3412" d="M -161.25709,168.78221 C -163.22395,170.62484 -170.11427,165.85236 -170.11427,165.85236 C -170.11427,165.85236 -164.7408,160.23808 -162.01257,161.46538 C -160.00011,162.37068 -159.64667,167.27352 -161.25709,168.78221 z" style="fill:url(#linearGradient3414);fill-opacity:1;fill-rule:evenodd;stroke:#131313;stroke-width:2.25;stroke-linecap:butt;stroke-linejoin:miter;stroke-miterlimit:4;stroke-dasharray:none;stroke-opacity:1"/><path id="path3416" d="M -129.17068,169.10464 C -127.20382,170.94727 -120.3135,166.17478 -120.3135,166.17478 C -120.3135,166.17478 -125.68697,160.5605 -128.41519,161.7878 C -130.42766,162.69311 -130.7811,167.59595 -129.17068,169.10464 z" style="fill:url(#linearGradient3418);fill-opacity:1;fill-rule:evenodd;stroke:#131313;stroke-width:2.25;stroke-linecap:butt;stroke-linejoin:miter;stroke-miterlimit:4;stroke-dasharray:none;stroke-opacity:1"/><path id="path3426" d="M -126,151.21948 A 6.625,6.625 0 1 1 -139.25,151.21948 A 6.625,6.625 0 1 1 -126,151.21948 z" transform="matrix(0.6341613,0,0,0.6341613,-61.039517,68.324922)" style="opacity:1;fill:url(#radialGradient3439);fill-opacity:1;stroke:#131313;stroke-width:3.54799318;stroke-linecap:round;stroke-linejoin:round;stroke-miterlimit:4;stroke-dasharray:none;stroke-opacity:1"/></g></g></svg>