<svg xmlns="http://www.w3.org/2000/svg" xmlns:svg="http://www.w3.org/2000/svg" xmlns:xlink="http://www.w3.org/1999/xlink" id="svg2584" width="744.094" height="1052.362" version="1.0"><defs id="defs2586"><linearGradient id="linearGradient3708"><stop id="stop3710" offset="0" style="stop-color:#202020;stop-opacity:1"/><stop id="stop3712" offset="1" style="stop-color:#fff;stop-opacity:1"/></linearGradient><linearGradient id="linearGradient3776" x1="518.27" x2="533.029" y1="497.315" y2="497.315" gradientUnits="userSpaceOnUse" xlink:href="#linearGradient3708"/><linearGradient id="linearGradient3718"><stop id="stop3720" offset="0" style="stop-color:#bcbcbc;stop-opacity:.28169015"/><stop id="stop3722" offset="1" style="stop-color:#bcbcbc;stop-opacity:0"/></linearGradient><linearGradient id="linearGradient3774" x1="516.895" x2="516.895" y1="503.501" y2="543.806" gradientTransform="matrix(0.9947644,0,0,1.3346457,2.7877039,-166.60153)" gradientUnits="userSpaceOnUse" xlink:href="#linearGradient3718"/><linearGradient id="linearGradient3692"><stop id="stop3694" offset="0" style="stop-color:#fff;stop-opacity:1"/><stop id="stop3696" offset="1" style="stop-color:#b6b6b6;stop-opacity:1"/></linearGradient><linearGradient id="linearGradient3772" x1="506.96" x2="525.416" y1="469.737" y2="469.737" gradientUnits="userSpaceOnUse" xlink:href="#linearGradient3692"/><linearGradient id="linearGradient2403" x1="506.96" x2="525.416" y1="469.737" y2="469.737" gradientUnits="userSpaceOnUse" xlink:href="#linearGradient3692"/><linearGradient id="linearGradient2405" x1="516.895" x2="516.895" y1="503.501" y2="543.806" gradientTransform="matrix(0.9947644,0,0,1.3346457,2.7877039,-166.60153)" gradientUnits="userSpaceOnUse" xlink:href="#linearGradient3718"/><linearGradient id="linearGradient2407" x1="518.27" x2="533.029" y1="497.315" y2="497.315" gradientUnits="userSpaceOnUse" xlink:href="#linearGradient3708"/></defs><g id="torpedo" transform="translate(-128.69958,6.6568748)"><g id="g3525" transform="matrix(0.8830571,0,0,0.8830571,-119.78327,177.67947)"><path id="path3682" d="M 523.9661,469.73706 A 7.7781744,34.648232 0 1 1 508.40975,469.73706 A 7.7781744,34.648232 0 1 1 523.9661,469.73706 z" style="opacity:1;fill:url(#linearGradient2403);fill-opacity:1;fill-rule:nonzero;stroke:#272727;stroke-width:2.9000001;stroke-linecap:round;stroke-linejoin:round;stroke-miterlimit:4;stroke-dasharray:none;stroke-opacity:1"/><g id="g3754"><rect id="rect3716" width="33.588" height="59.927" x="498.864" y="497.845" style="opacity:1;fill:url(#linearGradient2405);fill-opacity:1;fill-rule:nonzero;stroke:none;stroke-width:2.20000005;stroke-linecap:round;stroke-linejoin:round;stroke-miterlimit:4;stroke-dasharray:none;stroke-opacity:1"/><path id="path3704" d="M 523.35045,482.89424 C 523.35045,482.89424 532.31256,488.20203 532.02344,500.14638 C 531.73431,512.09072 531.73431,511.73417 531.73431,511.73417 C 531.73431,511.73417 520.70627,493.83104 519.26887,499.77636 L 523.35045,482.89424 z" style="fill:url(#linearGradient2407);fill-opacity:1;fill-rule:evenodd;stroke:#1f1f1f;stroke-width:1.99788344;stroke-linecap:butt;stroke-linejoin:miter;stroke-miterlimit:4;stroke-dasharray:none;stroke-opacity:1"/><path id="path3706" d="M 508.50327,482.89424 C 508.50327,482.89424 499.54116,488.20203 499.83028,500.14638 C 500.11941,512.09072 500.11941,511.73417 500.11941,511.73417 C 500.11941,511.73417 511.14745,493.83104 512.58485,499.77636 L 508.50327,482.89424 z" style="fill:#bcbcbc;fill-opacity:1;fill-rule:evenodd;stroke:#1f1f1f;stroke-width:1.99788344;stroke-linecap:butt;stroke-linejoin:miter;stroke-miterlimit:4;stroke-dasharray:none;stroke-opacity:1"/></g></g></g></svg>