<svg xmlns="http://www.w3.org/2000/svg" xmlns:xlink="http://www.w3.org/1999/xlink" width="130" height="56" x="0" y="0" enable-background="new 0 0 130 56" version="1.1" viewBox="0 0 130 56" xml:space="preserve"><linearGradient id="SVGID_1_" x1="-37.501" x2="-37.501" y1="-66" y2="-121.999" gradientTransform="matrix(1 0 0 -1 102.5 -66)" gradientUnits="userSpaceOnUse"><stop offset=".006" style="stop-color:#000"/><stop offset="1" style="stop-color:#eaecef"/></linearGradient><path fill="url(#SVGID_1_)" d="M101.998,55.998H28c-15.439,0-28-12.562-28-28C0,12.56,12.561,0,28,0h73.998	c15.439,0,28,12.559,28,27.998C129.998,43.438,117.438,55.998,101.998,55.998L101.998,55.998z"/><linearGradient id="SVGID_2_" x1="-5.5" x2="-69.5" y1="-132.134" y2="-55.861" gradientTransform="matrix(1 0 0 -1 102.5 -66)" gradientUnits="userSpaceOnUse"><stop offset=".006" style="stop-color:#000"/><stop offset="1" style="stop-color:#828385"/></linearGradient><path fill="url(#SVGID_2_)" d="M127.999,27.998c0,14.359-11.642,26-26,26h-74c-14.359,0-26-11.641-26-26l0,0	c0-14.359,11.641-26,26-26h74C116.357,1.998,127.999,13.639,127.999,27.998L127.999,27.998z"/></svg>